<svg width="249" height="178" viewBox="0 0 249 178" fill="none" xmlns="http://www.w3.org/2000/svg">
<path fill-rule="evenodd" clip-rule="evenodd" d="M25.412 169.688C49.1603 170.102 73.9097 169.115 97.7676 168.811C121.884 168.504 146.001 168.197 170.118 167.89C181.159 167.75 196.091 168.461 206.651 167.391C212.623 166.786 213.14 162.644 215.22 156.97C216.887 152.422 218.398 148.315 220.121 143.636C223.488 134.49 226.751 125.864 230.168 116.622C232.971 109.039 238.565 96.112 240.036 89.1502C231.089 90.5372 213.629 89.7483 203.79 89.853L95.5793 91.1964C84.3398 91.3471 69.9425 90.7065 59.105 91.7046C53.1822 92.2499 52.1234 96.4627 50.2883 101.882C48.7429 106.447 46.8273 110.834 45.3088 115.136C41.6156 125.602 26.8239 163.824 25.412 169.688Z" fill="#091220"/>
<path fill-rule="evenodd" clip-rule="evenodd" d="M23.2356 114.223C28.9252 106.538 33.034 79.0268 41.7492 73.4315C47.8701 69.5018 60.4865 70.8607 68.4461 70.7594C116.668 70.1456 164.89 69.5317 213.112 68.9179L212.961 44.4958C205.351 45.8123 99.5944 46.5052 97.5731 45.7871C95.1371 43.8198 95.3316 42.6056 93.7935 39.2138C92.6821 36.7632 91.8323 35.7328 91.2516 33.104C84.2937 32.7837 85.7645 27.614 82.2646 22.6076C78.9504 25.0089 33.8937 22.8109 28.3135 24.3102C22.8897 25.7677 22.8029 31.8069 22.8436 37.8066C22.9688 56.2705 22.3184 99.1487 23.2356 114.223V114.223Z" fill="#0C438A"/>
<path fill-rule="evenodd" clip-rule="evenodd" d="M184.929 173.597L186.66 171.679L184.929 173.597ZM188.349 173.454L186.66 171.679L188.393 169.763L190.08 171.537L188.349 173.454V173.454Z" fill="white"/>
<path fill-rule="evenodd" clip-rule="evenodd" d="M198.654 169.336C202.754 173.645 194.446 173.991 198.654 169.336V169.336Z" fill="white"/>
<path fill-rule="evenodd" clip-rule="evenodd" d="M203.718 174.659L202.03 172.885L203.763 170.968L205.451 172.742L203.718 174.659ZM202.03 172.885L200.342 171.11L202.074 169.193L203.763 170.968L202.03 172.885V172.885Z" fill="white"/>
<path fill-rule="evenodd" clip-rule="evenodd" d="M198.654 169.336L196.966 167.562L198.698 165.645L200.386 167.419L198.654 169.336Z" fill="white"/>
<path fill-rule="evenodd" clip-rule="evenodd" d="M198.698 165.645L197.01 163.871L198.742 161.954L200.43 163.729L198.698 165.645ZM197.01 163.871L195.322 162.097L197.054 160.18L198.742 161.954L197.01 163.871ZM191.813 169.62L190.125 167.846L191.857 165.93L193.545 167.704L191.813 169.62V169.62ZM193.545 167.704L191.857 165.93L193.589 164.014L195.277 165.788L193.545 167.704ZM195.277 165.788L193.589 164.014L195.322 162.097L197.01 163.871L195.277 165.788ZM200.43 163.729L198.742 161.954L200.474 160.038L202.162 161.812L200.43 163.729ZM198.742 161.954L197.054 160.18L198.786 158.264L200.474 160.038L198.742 161.954V161.954ZM200.474 160.038L198.786 158.264L200.518 156.347L202.206 158.121L200.474 160.038ZM202.206 158.121L200.518 156.347L202.25 154.431L203.938 156.205L202.206 158.121V158.121Z" fill="white"/>
<path fill-rule="evenodd" clip-rule="evenodd" d="M207.359 156.062L205.671 154.288L207.403 152.371L209.091 154.146L207.359 156.062ZM205.671 154.288L203.983 152.514L205.715 150.597L207.403 152.371L205.671 154.288V154.288ZM209.091 154.146L207.403 152.371L209.135 150.455L210.823 152.229L209.091 154.146ZM207.403 152.371L205.715 150.597L207.447 148.681L209.135 150.455L207.403 152.371V152.371ZM209.135 150.455L207.447 148.681L209.179 146.764L210.867 148.538L209.135 150.455Z" fill="white"/>
<path fill-rule="evenodd" clip-rule="evenodd" d="M212.556 150.312L210.867 148.538L212.599 146.621L214.288 148.396L212.556 150.312Z" fill="white"/>
<path fill-rule="evenodd" clip-rule="evenodd" d="M212.599 146.621L210.911 144.847L212.643 142.931L214.331 144.705L212.599 146.621V146.621ZM214.331 144.705L212.643 142.931L214.376 141.014L216.064 142.788L214.331 144.705ZM216.064 142.788L214.376 141.014L216.108 139.098L217.796 140.872L216.064 142.788Z" fill="white"/>
<path fill-rule="evenodd" clip-rule="evenodd" d="M222.772 153.576L221.084 151.802L222.817 149.885L224.505 151.66L222.772 153.576Z" fill="white"/>
<path fill-rule="evenodd" clip-rule="evenodd" d="M215.844 161.243L217.576 159.326L215.844 161.243ZM214.067 166.85L212.379 165.076C215.024 162.149 216.674 163.966 214.067 166.85ZM212.379 165.076L210.691 163.302L212.424 161.385L212.379 165.076ZM210.691 163.302L209.003 161.527L210.736 159.61L212.424 161.385L210.691 163.302ZM209.003 161.527L207.315 159.753L209.047 157.836L210.736 159.61L209.003 161.527ZM208.914 168.909C213.022 173.224 204.715 173.556 208.914 168.909V168.909ZM207.182 170.826L205.495 169.051L207.227 167.135L208.914 168.909L207.182 170.826ZM203.807 167.277L205.539 165.36L207.227 167.135L203.807 167.277ZM203.807 167.277L202.118 165.503L203.85 163.586L205.539 165.36L203.807 167.277V167.277ZM208.914 168.909L210.647 166.992L212.335 168.767L208.914 168.909ZM205.539 165.36L203.85 163.586L205.583 161.669L207.271 163.444L205.539 165.36ZM207.271 163.444L205.583 161.669L207.315 159.753L209.003 161.527L207.271 163.444ZM205.583 161.669L203.895 159.896L205.627 157.979L207.315 159.753L205.583 161.669ZM215.844 161.243C218.475 164.008 215.771 167.331 215.844 161.243V161.243ZM214.112 163.159L212.424 161.385L214.156 159.469L215.844 161.243L214.112 163.159ZM210.736 159.61L209.047 157.836L210.779 155.92L212.467 157.694L210.736 159.61ZM214.156 159.469L215.888 157.552L214.156 159.469ZM212.467 157.694L210.779 155.92L212.511 154.003L214.199 155.777L212.467 157.694ZM214.199 155.777L212.511 154.003L214.244 152.087L215.932 153.86L214.199 155.777V155.777ZM212.511 154.003L210.823 152.23L212.556 150.313L214.244 152.087L212.511 154.003V154.003ZM215.932 153.86L214.244 152.087L215.976 150.17L217.664 151.944L215.932 153.86Z" fill="white"/>
<path fill-rule="evenodd" clip-rule="evenodd" d="M222.817 149.885L221.128 148.111L222.86 146.194L222.817 149.885V149.885ZM221.128 148.111L219.44 146.337L221.172 144.42L221.128 148.111ZM219.396 150.028L217.708 148.254L219.44 146.337L221.128 148.111L219.396 150.028ZM217.708 148.254L216.02 146.48L217.752 144.563L219.44 146.337L217.708 148.254ZM221.172 144.42L222.905 142.504C225.47 145.201 223.738 147.117 221.172 144.42ZM224.593 144.278L222.905 142.504C225.538 139.591 227.225 141.365 224.593 144.278ZM224.637 140.587C227.771 137.119 227.691 143.797 224.637 140.587V140.587ZM222.949 138.813C226.083 135.345 226.003 142.023 222.949 138.813V138.813ZM222.949 138.813L221.261 137.039L222.993 135.122L222.949 138.813V138.813ZM221.261 137.039L219.572 135.264L221.305 133.348L221.261 137.039V137.039ZM219.528 138.955L217.84 137.181L219.572 135.264L221.261 137.039L219.528 138.955ZM221.305 133.348L223.037 131.432C225.602 134.128 223.87 136.044 221.305 133.348ZM224.725 133.206L223.037 131.432L224.769 129.515L226.457 131.289L224.725 133.206Z" fill="white"/>
<path fill-rule="evenodd" clip-rule="evenodd" d="M219.484 142.646L217.796 140.872L219.528 138.955L221.216 140.73L219.484 142.646Z" fill="white"/>
<path fill-rule="evenodd" clip-rule="evenodd" d="M229.878 131.147L228.189 129.373L228.468 129.064L228.687 129.194C230.667 130.319 230.397 129.79 230.907 130.008L229.878 131.147ZM228.189 129.373L226.753 127.863C227.261 128.287 227.833 128.688 228.468 129.064L228.189 129.373Z" fill="white"/>
<path fill-rule="evenodd" clip-rule="evenodd" d="M172.001 76.3721L173.485 74.7303L173.841 75.105C173.263 75.4173 172.701 75.802 172.196 76.2894C172.162 76.322 172.096 76.3488 172.001 76.3721V76.3721Z" fill="white"/>
<path fill-rule="evenodd" clip-rule="evenodd" d="M182.973 71.5168L183.791 70.6129L184.65 71.5152C184.095 71.4734 183.533 71.4692 182.973 71.5168V71.5168Z" fill="white"/>
<path fill-rule="evenodd" clip-rule="evenodd" d="M183.791 70.6129L182.102 68.8385L183.834 66.9213L185.522 68.6957L183.791 70.6129V70.6129ZM182.102 68.8385L180.414 67.064L182.146 65.1476L183.834 66.9213L182.102 68.8385V68.8385ZM176.42 74.0776L175.217 72.8139L176.95 70.8975L178.637 72.6712L177.74 73.6636C177.356 73.7972 176.907 73.9265 176.42 74.0776V74.0776ZM178.637 72.6712L176.95 70.8975L178.681 68.9812L180.37 70.7548L178.637 72.6712V72.6712ZM180.37 70.7548L178.681 68.9812L180.414 67.064L182.102 68.8385L180.37 70.7548V70.7548ZM185.522 68.6957L183.834 66.9213L185.566 65.0049L187.254 66.7794L185.522 68.6957V68.6957ZM183.834 66.9213L182.146 65.1476L183.878 63.2313L185.566 65.0049L183.834 66.9213V66.9213ZM185.566 65.0049L183.878 63.2313L185.61 61.3141L187.298 63.0885L185.566 65.0049V65.0049ZM187.298 63.0885L185.61 61.3141L187.343 59.3978L189.03 61.1722L187.298 63.0885V63.0885Z" fill="white"/>
<path fill-rule="evenodd" clip-rule="evenodd" d="M192.451 61.0296L190.763 59.255L192.495 57.3386L194.183 59.1132L192.451 61.0296ZM190.763 59.255L189.075 57.481L190.807 55.5646L192.495 57.3386L190.763 59.255V59.255ZM194.183 59.1132L192.495 57.3386L194.227 55.4222L195.916 57.1967L194.183 59.1132ZM192.495 57.3386L190.807 55.5646L192.539 53.6482L194.227 55.4222L192.495 57.3386ZM194.227 55.4222L192.539 53.6482L194.272 51.7313L195.96 53.5053L194.227 55.4222Z" fill="white"/>
<path fill-rule="evenodd" clip-rule="evenodd" d="M197.648 55.2799L195.96 53.5053L197.692 51.5889L199.38 53.3634L197.648 55.2799Z" fill="white"/>
<path fill-rule="evenodd" clip-rule="evenodd" d="M197.692 51.5889L196.004 49.8149L197.736 47.8985L199.424 49.6725L197.692 51.5889V51.5889ZM199.424 49.6725L197.736 47.8985L199.468 45.9816L201.156 47.7556L199.424 49.6725ZM201.156 47.7556L199.468 45.9816L201.2 44.0652L202.888 45.8392L201.156 47.7556Z" fill="white"/>
<path fill-rule="evenodd" clip-rule="evenodd" d="M207.865 58.5437L206.177 56.7696L207.909 54.8527L209.597 56.6268L207.865 58.5437Z" fill="white"/>
<path fill-rule="evenodd" clip-rule="evenodd" d="M217.15 64.5651L216.35 63.7229L218.082 61.8073L218.442 62.1864L217.15 64.5651ZM215.858 66.9446L214.617 65.6401L216.35 63.7229L217.15 64.5651L215.858 66.9446V66.9446ZM218.442 62.1864L218.082 61.8073L219.501 60.2366L218.442 62.1864ZM218.082 61.8073L216.393 60.0329L218.126 58.1166L219.769 59.8434L218.082 61.8073V61.8073ZM216.393 60.0329L214.706 58.2585L216.437 56.3429L218.126 58.1166L216.393 60.0329V60.0329ZM206.656 72.2213L206.001 71.5328L207.733 69.6163L209.265 71.2264C208.328 71.5118 207.549 71.8458 206.656 72.2213V72.2213ZM206.001 71.5328L204.313 69.7583L206.044 67.8419L207.733 69.6163L206.001 71.5328V71.5328ZM204.117 73.2888L202.581 71.6755L204.313 69.7583L206.001 71.5328L204.117 73.2888V73.2888ZM204.313 69.7583L202.624 67.9838L204.356 66.0674L206.044 67.8419L204.313 69.7583V69.7583ZM202.624 67.9838L200.936 66.2102L202.668 64.2938L204.356 66.0674L202.624 67.9838V67.9838ZM200.849 73.5918L199.159 71.8174L200.892 69.9002L202.581 71.6755L200.849 73.5918ZM199.159 71.8174L197.471 70.0429L199.204 68.1265L200.892 69.9002L199.159 71.8174V71.8174ZM197.471 70.0429L195.784 68.2693L197.516 66.3521L199.204 68.1265L197.471 70.0429V70.0429ZM195.784 68.2693L194.095 66.4948L195.828 64.5776L197.516 66.3521L195.784 68.2693ZM194.095 66.4948L192.407 64.7204L194.14 62.8039L195.828 64.5776L194.095 66.4948V66.4948ZM193.905 73.9891L194.287 74.171L193.905 73.9891ZM191.508 73.0009L192.319 72.1028L194.007 73.8764L193.905 73.9891C193.104 73.6119 192.281 73.2613 191.508 73.0009V73.0009ZM189.005 72.3557L188.899 72.2439L190.631 70.3276L192.319 72.1028L191.508 73.0009C190.688 72.7255 189.841 72.5661 189.005 72.3557V72.3557ZM188.899 72.2439L187.21 70.4702L188.942 68.5539L190.631 70.3276L188.899 72.2439ZM194.287 74.171L194.007 73.8764L195.74 71.9593L197.428 73.7337L196.164 75.1318C195.593 74.8263 194.952 74.4932 194.287 74.171ZM190.631 70.3276L188.942 68.5539L190.675 66.6367L192.363 68.4111L190.631 70.3276V70.3276ZM192.363 68.4111L190.675 66.6367L192.407 64.7204L194.095 66.4948L192.363 68.4111V68.4111ZM190.675 66.6367L188.987 64.863L190.719 62.9467L192.407 64.7204L190.675 66.6367V66.6367ZM200.892 69.9002L199.204 68.1265L200.936 66.2102L202.624 67.9838L200.892 69.9002V69.9002ZM199.204 68.1265L197.516 66.3521L199.248 64.4357L200.936 66.2102L199.204 68.1265ZM195.828 64.5776L194.14 62.8039L195.871 60.8867L197.559 62.6612L195.828 64.5776V64.5776ZM200.936 66.2102L199.248 64.4357L200.981 62.5193L202.668 64.2938L200.936 66.2102ZM197.559 62.6612L195.871 60.8867L197.604 58.9704L199.292 60.7449L197.559 62.6612ZM209.265 71.2264L207.733 69.6163L209.465 67.6992L211.153 69.4737L209.265 71.2264ZM206.044 67.8419L204.356 66.0674L206.088 64.1503L207.777 65.9256L206.044 67.8419ZM204.356 66.0674L202.668 64.2938L204.401 62.3766L206.088 64.1503L204.356 66.0674ZM199.292 60.7449L197.604 58.9704L199.336 57.054L201.024 58.8277L199.292 60.7449V60.7449ZM197.604 58.9704L195.916 57.1967L197.648 55.2804L199.336 57.054L197.604 58.9704V58.9704ZM211.153 69.4737L209.465 67.6992L211.198 65.7828L212.885 67.5573L211.153 69.4737V69.4737ZM209.465 67.6992L207.777 65.9256L209.509 64.0084L211.198 65.7828L209.465 67.6992V67.6992ZM207.777 65.9256L206.088 64.1503L207.82 62.2338L209.509 64.0084L207.777 65.9256V65.9256ZM201.024 58.8277L199.336 57.054L201.068 55.1377L202.756 56.9113L201.024 58.8277V58.8277ZM211.198 65.7828L209.509 64.0084L211.241 62.092L212.93 63.8664L211.198 65.7828ZM209.509 64.0084L207.82 62.2338L209.553 60.3175L211.241 62.092L209.509 64.0084V64.0084ZM207.82 62.2338L206.133 60.4603L207.865 58.5438L209.553 60.3175L207.82 62.2338V62.2338ZM212.93 63.8664L211.241 62.092L212.974 60.1748L214.662 61.9501L212.93 63.8664V63.8664ZM211.241 62.092L209.553 60.3175L211.285 58.4012L212.974 60.1748L211.241 62.092ZM214.662 61.9501L212.974 60.1748L214.706 58.2585L216.393 60.0329L214.662 61.9501ZM214.706 58.2585L213.017 56.4848L214.749 54.5685L216.437 56.3429L214.706 58.2585V58.2585ZM213.017 56.4848L211.33 54.7103L213.061 52.794L214.749 54.5685L213.017 56.4848Z" fill="white"/>
<path fill-rule="evenodd" clip-rule="evenodd" d="M207.909 54.8531L206.22 53.0786L207.953 51.1622L209.641 52.9367L207.909 54.8531ZM206.22 53.0786L204.533 51.3041L206.264 49.3878L207.953 51.1622L206.22 53.0786V53.0786ZM204.488 54.9949L202.8 53.2213L204.533 51.3041L206.22 53.0786L204.488 54.9949ZM202.8 53.2213L201.112 51.4468L202.844 49.5305L204.533 51.3041L202.8 53.2213ZM207.953 51.1622L206.264 49.3878L207.996 47.4714L209.685 49.245L207.953 51.1622ZM209.685 49.245L207.996 47.4714L209.729 45.5542L211.417 47.3287L209.685 49.245ZM211.417 47.3287L209.729 45.5542L211.461 43.6378L213.149 45.4123L211.417 47.3287V47.3287ZM209.729 45.5542L208.041 43.7806L208.446 43.3331C209.356 43.3391 210.263 43.3307 211.155 43.3157L211.461 43.6378L209.729 45.5542V45.5542ZM208.041 43.7806L207.607 43.324L208.446 43.3331L208.041 43.7806ZM204.62 43.9224L203.896 43.1621L205.232 43.2464L204.62 43.9224ZM213.149 45.4123L211.461 43.6378L211.762 43.3049L214.629 43.2305L214.882 43.496L213.149 45.4123V45.4123ZM214.882 43.496L215.134 43.2164L214.882 43.496Z" fill="white"/>
<path fill-rule="evenodd" clip-rule="evenodd" d="M204.577 47.6137L202.888 45.8391L204.62 43.9227L206.309 45.6973L204.577 47.6137Z" fill="white"/>
<path fill-rule="evenodd" clip-rule="evenodd" d="M218.126 58.1166L209.685 49.245L215.134 43.2164C216.42 43.1804 217.628 43.1504 218.716 43.1504L218.611 43.678L218.302 43.3532L213.106 49.1031L218.17 54.4257L219.642 52.7973C219.94 53.7914 220.225 54.7228 220.409 55.59L218.126 58.1166V58.1166Z" fill="white"/>
<path fill-rule="evenodd" clip-rule="evenodd" d="M218.213 50.7349L216.526 48.9604L218.258 47.0441L218.445 47.2403C218.519 48.1985 218.678 49.1182 218.879 49.9988L218.213 50.7349V50.7349Z" fill="white"/>
<path fill-rule="evenodd" clip-rule="evenodd" d="M25.4119 169.689C26.8238 163.824 41.6155 125.602 45.3087 115.137C46.8272 110.834 48.7428 106.447 50.2883 101.883C52.1233 96.4628 53.1821 92.25 59.105 91.7047C69.9424 90.7066 84.3397 91.3472 95.5792 91.1965L203.79 89.8531C213.629 89.7484 231.089 90.5373 240.036 89.1503C242.768 83.1749 241.571 76.8153 235.059 76.2675L171.024 77.029C142.723 77.3769 114.389 77.6426 86.0913 78.1319C78.7474 78.2589 49.0372 77.3299 45.3778 79.8101C42.3307 81.8751 34.7934 105.249 32.4696 111.22L14.5567 159.561C12.3018 168.609 18.2858 169.292 25.4119 169.689V169.689Z" fill="white"/>
<path fill-rule="evenodd" clip-rule="evenodd" d="M23.2359 114.223C22.3183 99.1488 22.969 56.2703 22.8435 37.8061C22.8032 31.8066 22.8901 25.7679 28.3137 24.3098C33.8936 22.8107 78.9504 25.0092 82.2646 22.6079C75.6305 7.45149 79.7676 10.2743 43.6755 10.7141C12.0949 11.0998 12.9486 6.66858 13.3766 32.769C13.6649 50.3117 13.2929 67.8702 13.5803 85.4196C13.8362 101.015 12.8483 118.999 13.6498 134.639C13.9381 134.005 14.066 133.46 15.0745 132.031L20.0275 123.284L23.2359 114.223V114.223Z" fill="white"/>
<path fill-rule="evenodd" clip-rule="evenodd" d="M212.961 44.4958C212.447 30.1691 212.316 31.6163 192.241 31.8617C160.911 32.2448 120.463 33.7949 91.2516 33.1039C91.8323 35.7327 92.6821 36.7631 93.7935 39.2138C95.3316 42.6056 95.1371 43.8198 97.5731 45.7871C99.5944 46.5052 205.351 45.8123 212.961 44.4958V44.4958Z" fill="white"/>
<path fill-rule="evenodd" clip-rule="evenodd" d="M68.6366 74.1153C69.4589 73.6663 71.1107 72.2764 71.5872 71.5468C71.2566 70.3319 70.0446 68.276 69.3631 66.9707L64.9351 57.979C64.1841 56.4622 62.8243 54.914 63.3919 53.1812C65.9521 52.2342 76.0482 53.9908 79.4616 53.3478L79.6797 49.441L55.8221 48.5198C56.6319 51.0492 67.8551 71.8903 68.6366 74.1153V74.1153Z" fill="white"/>
<path fill-rule="evenodd" clip-rule="evenodd" d="M27.8134 51.7337C30.3167 51.9333 42.5272 51.7913 43.5532 52.5769C44.6054 53.5381 43.1818 54.8287 41.9122 57.0806L36.6446 65.762C35.8793 67.0163 34.4147 69.0443 33.9101 70.2993C34.3881 71.2535 35.626 72.2656 36.4012 73.0494C37.2098 72.4408 39.5422 68.2694 40.2617 67.0705C43.9275 60.9658 48.2156 54.5077 51.7832 48.4415L28.069 47.6028L27.8134 51.7337V51.7337Z" fill="white"/>
<path fill-rule="evenodd" clip-rule="evenodd" d="M39.5872 75.6749L42.7907 77.4839C43.826 75.3981 52.1292 61.9422 52.5367 61.7722C54.4881 61.6775 54.7828 63.723 55.5297 65.1961L62.2194 78.1034C62.9582 77.9174 64.9265 76.7665 65.5805 76.3099C65.2687 75.4558 64.6264 74.4256 64.1912 73.5111C63.7549 72.5934 63.1671 71.4468 62.7276 70.6444L53.3761 53.3029C53.0846 53.591 53.4374 53.1519 53.026 53.6788L43.0233 69.99C42.2395 71.235 39.9411 74.6318 39.5872 75.6749V75.6749Z" fill="white"/>
<path fill-rule="evenodd" clip-rule="evenodd" d="M53.9844 25.2583C47.0443 26.5333 48.099 38.1357 55.7279 36.8196C58.3904 36.3602 60.858 33.572 60.3428 30.0016C59.934 27.1686 57.448 24.622 53.9844 25.2583V25.2583Z" fill="white"/>
<path fill-rule="evenodd" clip-rule="evenodd" d="M52.7453 46.6437L55.6649 46.7437L55.9655 41.7461C58.2679 43.194 59.0233 46.8716 61.1333 46.9463C62.1359 46.9819 63.4407 47.0835 64.4077 47.0044L64.8832 39.2123L61.8563 39.0565C61.6129 40.3994 61.7179 41.7968 61.61 43.0305L61.3245 44.3077C60.2875 42.9101 59.3297 41.6398 58.2979 40.3873C57.6306 39.5776 57.6256 38.955 56.4278 38.8518C55.454 38.7682 54.0713 38.7691 53.0771 38.7813C52.7862 40.1104 52.5546 45.902 52.7453 46.6437V46.6437Z" fill="white"/>
<path fill-rule="evenodd" clip-rule="evenodd" d="M37.4501 43.6782C37.2111 44.447 37.5494 44.2202 36.7788 44.5365C36.5325 44.6375 35.7096 44.6197 35.423 44.5991C34.0093 44.4977 34.0649 44.3862 33.5499 43.4564L30.5814 43.3432C30.6279 47.2196 38.4389 46.2192 39.7967 45.3751C41.7089 44.1866 40.9779 42.4785 39.0235 41.7822C37.0013 41.0617 34.8888 41.2728 34.3079 40.0885C35.0768 39.3786 36.5838 39.4977 37.4011 40.1245C38.2202 40.7528 38.592 40.7622 40.6084 40.6084C40.8425 37.5786 34.0314 37.7252 31.9366 38.7451C30.7447 39.3254 29.8838 41.3582 32.5287 42.2884C34.1194 42.8478 36.075 43.02 37.4501 43.6782V43.6782Z" fill="white"/>
<path fill-rule="evenodd" clip-rule="evenodd" d="M70.0399 44.1758C70.2491 43.3327 71.3836 41.7702 71.8835 41.4383C72.3735 42.4198 72.9949 43.2939 73.2225 44.2907L70.0399 44.1758ZM64.947 47.0351L68.0754 47.1633L68.843 45.6881L74.2602 45.8814L74.8214 47.3083L78.1976 47.4573C77.5661 45.6616 74.8078 41.3223 73.8406 39.4655L70.3343 39.3439C69.4606 40.5088 65.3592 46.0857 64.947 47.0351V47.0351Z" fill="white"/>
<path fill-rule="evenodd" clip-rule="evenodd" d="M42.097 46.2873L51.1199 46.5821L51.2099 44.9108L45.5328 44.677L45.5418 43.179L50.6885 43.2313L50.7711 41.7294C49.9457 41.5404 49.0156 41.6129 48.1649 41.5973C44.9526 41.5378 46.0097 41.7846 45.6944 40.9166C46.0511 40.145 45.2613 40.2631 46.9346 40.2936L51.2291 40.4553L51.3467 38.8087L42.6163 38.4096L42.097 46.2873V46.2873Z" fill="white"/>
<path fill-rule="evenodd" clip-rule="evenodd" d="M240.036 89.1506C238.565 96.1124 232.971 109.039 230.168 116.622C226.752 125.864 223.488 134.49 220.121 143.637C218.398 148.315 216.887 152.422 215.22 156.97C213.14 162.644 212.623 166.787 206.651 167.391C196.091 168.461 181.159 167.75 170.118 167.89C146.002 168.197 121.884 168.504 97.7679 168.811C73.9098 169.115 49.1599 170.103 25.4116 169.689C18.2862 169.291 12.3018 168.608 14.5563 159.561L32.4697 111.22C34.7939 105.248 42.3308 81.8749 45.3783 79.81C49.0375 77.3294 78.7473 78.2592 86.0914 78.1314C114.389 77.6425 142.723 77.3769 171.025 77.029L235.059 76.2677C241.571 76.8152 242.768 83.1744 240.036 89.1506V89.1506ZM23.2359 114.223L16.6453 132.838C15.7118 135.359 15.4599 136.866 13.9144 138.845C12.6573 122.29 13.8599 102.433 13.5804 85.4196C13.2928 67.8703 13.6648 50.3118 13.3766 32.769C12.9485 6.66871 12.0951 11.0998 43.6755 10.7142C79.7677 10.2744 75.6305 7.45151 82.2646 22.6079C85.7647 27.6141 84.2934 32.7839 91.2514 33.1037C120.463 33.7948 160.911 32.2449 192.24 31.8617C212.316 31.6163 212.447 30.169 212.961 44.4958L213.112 68.9179C164.89 69.532 116.668 70.1455 68.4459 70.7591C60.4865 70.8609 30.7751 70.0229 30.7751 70.0229C28.1826 72.4692 32.4169 84.0416 32.4169 84.0416C32.4169 84.0416 26.4943 109.822 23.2359 114.223V114.223ZM91.9249 25.3606C87.3108 19.2327 86.6096 3.38174 72.6194 2.68314C60.0688 2.05635 16.0584 -0.149616 3.24411 0.00803952C-5.63992 0.118333 6.61294 11.3143 5.93538 28.5098C5.41258 41.7874 6.16368 47.0215 6.33183 60.4585C6.46294 70.9177 6.1447 161.301 7.10088 165.836C8.07542 170.457 12.4804 175.52 16.7051 176.74C21.8808 178.235 127.763 176.09 137.525 175.862L197.846 175.057C214.335 174.901 216.384 174.767 222.457 157.867L239.417 112.372C241.377 107.227 242.766 102.615 244.954 97.1349C246.871 92.3306 249.846 86.5363 248.773 80.6797C245.717 64.0134 228.126 69.7792 220.458 68.4528C219.595 55.717 223.237 36.04 216.159 28.4205C211.552 23.4626 207.185 23.9442 198.503 24.0878L134.331 24.8808C120.752 25.0343 105.262 26.0051 91.9249 25.3606V25.3606Z" fill="black"/>
<g clip-path="url(#clip0_163:976)">
<path d="M77.8242 120.972L71.5431 121.038L71.5635 126.312C71.569 127.748 72.6187 128.454 74.7124 128.432C77.4513 128.403 79.7388 129.11 81.5749 130.552C83.5298 132.085 84.5122 134.129 84.522 136.684L84.5488 143.578C84.5536 144.842 84.0706 145.927 83.0997 146.833C82.1418 147.725 80.9979 148.178 79.6679 148.193L69.9104 148.296C68.5804 148.31 67.4331 147.881 66.4684 147.009C65.4905 146.124 64.9991 145.05 64.9942 143.785L64.9681 137.05L71.6048 136.979L71.6246 142.095L77.9058 142.028L77.8854 136.754C77.8798 135.319 76.8301 134.612 74.7364 134.635C71.9975 134.664 69.71 133.957 67.874 132.515C65.9191 130.982 64.9367 128.938 64.9268 126.383L64.9001 119.489C64.8952 118.225 65.3782 117.14 66.3492 116.234C67.307 115.342 68.4509 114.888 69.7809 114.874L79.5384 114.77C80.8684 114.756 82.0157 115.185 82.9804 116.057C83.9583 116.943 84.4497 118.017 84.4546 119.281L84.4807 125.997L77.8439 126.068L77.8242 120.972ZM95.5246 141.841L106.586 141.724L106.61 147.906L88.9119 148.094L88.7824 114.672L106.48 114.484L106.504 120.667L95.4431 120.784L95.4718 128.212L104.676 128.114L104.7 134.316L95.4959 134.414L95.5246 141.841ZM116.56 126.269L116.644 147.8L110.007 147.87L109.878 114.448L119.082 114.35L124.598 135.922L124.514 114.293L131.151 114.222L131.28 147.644L122.095 147.742L116.56 126.269ZM143.911 134.552L147.15 134.517L145.475 120.292L143.911 134.552ZM142.73 140.747L141.413 147.537L134.697 147.608L141.046 114.117L149.876 114.023L156.464 147.377L149.728 147.448L148.399 140.687L142.73 140.747ZM165.761 120.038L165.796 129.183L168.937 129.15C171.03 129.128 172.075 128.399 172.069 126.963L172.042 119.971L165.761 120.038ZM159.1 113.925L173.756 113.77C175.086 113.755 176.233 114.184 177.198 115.057C178.176 115.942 178.667 117.016 178.672 118.281L178.705 126.893C178.715 129.434 177.749 131.492 175.806 133.067C173.981 134.548 171.699 135.303 168.961 135.333L165.82 135.366L165.866 147.277L159.23 147.347L159.1 113.925ZM188.989 119.791L189.025 128.936L192.165 128.903C194.259 128.881 195.303 128.152 195.298 126.717L195.27 119.724L188.989 119.791ZM182.328 113.679L196.985 113.523C198.314 113.509 199.462 113.938 200.427 114.81C201.404 115.695 201.896 116.77 201.901 118.034L201.934 126.646C201.944 129.188 200.977 131.246 199.034 132.82C197.21 134.302 194.928 135.057 192.189 135.086L189.048 135.119L189.095 147.03L182.458 147.101L182.328 113.679Z" fill="white"/>
</g>
<defs>
<clipPath id="clip0_163:976">
<rect width="137.411" height="35.0057" fill="white" transform="translate(64.7867 113.377)"/>
</clipPath>
</defs>
</svg>
