<svg width="102" height="97" viewBox="0 0 102 97" fill="none" xmlns="http://www.w3.org/2000/svg">
<path fill-rule="evenodd" clip-rule="evenodd" d="M34.9827 0.154541L37.4652 0.165548L37.4596 2.51648L34.9771 2.50548L34.9827 0.154541Z" fill="white"/>
<path fill-rule="evenodd" clip-rule="evenodd" d="M20.0843 2.43945L22.5667 2.45046L22.561 4.80193L20.0786 4.79092L20.0843 2.43945ZM20.0786 4.79092L22.561 4.80193L22.5554 7.15286L20.0729 7.14185L20.0786 4.79092ZM20.0729 7.14185L22.5554 7.15286L22.5497 9.50379L20.0672 9.49278L20.0729 7.14185ZM20.0672 9.49278L22.5497 9.50379L22.544 11.8553L20.0616 11.8442L20.0672 9.49278ZM20.0616 11.8442L22.544 11.8553L22.5383 14.2062L20.0559 14.1952L20.0616 11.8442ZM20.0559 14.1952L22.5383 14.2062L22.5326 16.5571L20.0502 16.5461L20.0559 14.1952Z" fill="white"/>
<path fill-rule="evenodd" clip-rule="evenodd" d="M37.4597 2.5166L39.9416 2.52761L39.9359 4.87906L37.454 4.86805L37.4597 2.5166Z" fill="white"/>
<path fill-rule="evenodd" clip-rule="evenodd" d="M42.4234 2.53833L44.9059 2.5494L44.9002 4.90079L42.4177 4.88979L42.4234 2.53833Z" fill="white"/>
<path fill-rule="evenodd" clip-rule="evenodd" d="M47.3877 2.5603L49.8701 2.57131L49.8645 4.92287L47.382 4.91186L47.3877 2.5603ZM49.8701 2.57131L52.3521 2.58232L52.3464 4.93394L49.8645 4.92287L49.8701 2.57131ZM49.8645 4.92287L52.3464 4.93394L52.3407 7.28497L49.8588 7.2739L49.8645 4.92287Z" fill="white"/>
<path fill-rule="evenodd" clip-rule="evenodd" d="M39.9356 4.87842L42.4176 4.88948L42.4119 7.24061L39.9299 7.2296L39.9356 4.87842Z" fill="white"/>
<path fill-rule="evenodd" clip-rule="evenodd" d="M27.5192 7.17502L30.0018 7.18609L29.9961 9.53714L27.5136 9.52613L27.5192 7.17502ZM30.0018 7.18609L32.4837 7.1971L32.478 9.54814L29.9961 9.53714L30.0018 7.18609ZM25.0544 0.110352L27.5363 0.121359L27.5306 2.4724L25.0487 2.4614L25.0544 0.110352ZM25.0487 2.4614L27.5306 2.4724L27.5249 4.82398L25.0431 4.81297L25.0487 2.4614ZM27.5306 2.4724L30.0131 2.48341L30.0075 4.83505L27.5249 4.82398L27.5306 2.4724ZM30.0131 2.48341L32.495 2.49448L32.4894 4.84606L30.0075 4.83505L30.0131 2.48341ZM30.0188 0.132366L32.5007 0.143434L32.495 2.49448L30.0131 2.48341L30.0188 0.132366ZM25.0431 4.81297L27.5249 4.82398L27.5192 7.17502L25.0374 7.16402L25.0431 4.81297ZM30.0075 4.83505L32.4894 4.84606L32.4837 7.1971L30.0018 7.18609L30.0075 4.83505ZM32.4894 4.84606L34.9712 4.85706L34.9656 7.20811L32.4837 7.1971L32.4894 4.84606ZM34.9712 4.85706L37.4538 4.86807L37.4481 7.21912L34.9656 7.20811L34.9712 4.85706ZM27.5136 9.52613L29.9961 9.53714L29.9904 11.8887L27.5079 11.8777L27.5136 9.52613Z" fill="white"/>
<path fill-rule="evenodd" clip-rule="evenodd" d="M37.4482 7.21851L39.93 7.22957L39.9244 9.5807L37.4425 9.56964L37.4482 7.21851ZM37.4425 9.56964L39.9244 9.5807L39.9187 11.9324L37.4368 11.9214L37.4425 9.56964Z" fill="white"/>
<path fill-rule="evenodd" clip-rule="evenodd" d="M52.3406 7.28491L54.8226 7.29592L54.8169 9.64681L52.3349 9.63581L52.3406 7.28491ZM52.3349 9.63581L54.8169 9.64681L54.8112 11.9982L52.3293 11.9872L52.3349 9.63581ZM54.8169 9.64681L57.2994 9.65782L57.2937 12.0092L54.8112 11.9982L54.8169 9.64681ZM52.3293 11.9872L54.8112 11.9982L54.8055 14.3491L52.3236 14.3381L52.3293 11.9872Z" fill="white"/>
<path fill-rule="evenodd" clip-rule="evenodd" d="M57.3051 7.30813L59.787 7.31914L59.7814 9.67018L57.2994 9.65917L57.3051 7.30813ZM59.787 7.31914L62.269 7.33015L62.2633 9.68119L59.7814 9.67018L59.787 7.31914ZM54.8397 0.243408L57.3222 0.254475L57.3165 2.60552L54.834 2.59445L54.8397 0.243408ZM57.3222 0.254475L59.8041 0.265483L59.7984 2.61652L57.3165 2.60552L57.3222 0.254475ZM59.8041 0.265483L62.286 0.276491L62.2804 2.62753L59.7984 2.61652L59.8041 0.265483ZM62.286 0.276491L64.7685 0.287498L64.7628 2.63854L62.2804 2.62753L62.286 0.276491ZM64.7685 0.287498L67.2504 0.298506L67.2447 2.64955L64.7628 2.63854L64.7685 0.287498ZM59.7984 2.61652L62.2804 2.62753L62.2746 4.97911L59.7927 4.9681L59.7984 2.61652ZM59.7927 4.9681L62.2746 4.97911L62.269 7.33015L59.787 7.31914L59.7927 4.9681ZM62.2746 4.97911L64.7571 4.99018L64.7514 7.34122L62.269 7.33015L62.2746 4.97911ZM59.7814 9.67018L62.2633 9.68119L62.2576 12.0328L59.7757 12.0218L59.7814 9.67018Z" fill="white"/>
<path fill-rule="evenodd" clip-rule="evenodd" d="M79.6442 7.40649L82.1261 7.4175L82.1204 9.76868L79.6385 9.75768L79.6442 7.40649Z" fill="white"/>
<path fill-rule="evenodd" clip-rule="evenodd" d="M72.192 9.72509L74.6739 9.7361L74.6683 12.0878L72.1864 12.0768L72.192 9.72509ZM74.6739 9.7361L77.1564 9.74717L77.1507 12.0988L74.6683 12.0878L74.6739 9.7361ZM72.2091 2.67136L74.691 2.68237L74.6853 5.03397L72.2034 5.02296L72.2091 2.67136ZM74.691 2.68237L77.1735 2.69337L77.1678 5.04504L74.6853 5.03397L74.691 2.68237ZM74.6967 0.331299L77.1791 0.342306L77.1735 2.69337L74.691 2.68237L74.6967 0.331299ZM74.6853 5.03397L77.1678 5.04504L77.1621 7.3961L74.6796 7.38504L74.6853 5.03397ZM74.6796 7.38504L77.1621 7.3961L77.1564 9.74717L74.6739 9.7361L74.6796 7.38504ZM72.1864 12.0768L74.6683 12.0878L74.6625 14.4388L72.1807 14.4278L72.1864 12.0768ZM74.6683 12.0878L77.1507 12.0988L77.1451 14.4498L74.6625 14.4388L74.6683 12.0878ZM74.6625 14.4388L77.1451 14.4498L77.1394 16.8009L74.6569 16.7899L74.6625 14.4388Z" fill="white"/>
<path fill-rule="evenodd" clip-rule="evenodd" d="M57.2937 12.0098L59.7756 12.0208L59.7699 14.3717L57.288 14.3606L57.2937 12.0098Z" fill="white"/>
<path fill-rule="evenodd" clip-rule="evenodd" d="M79.6328 12.1089L82.1147 12.1199L82.109 14.4709L79.6272 14.4599L79.6328 12.1089ZM79.6272 14.4599L82.109 14.4709L82.1034 16.822L79.6215 16.811L79.6272 14.4599Z" fill="white"/>
<path fill-rule="evenodd" clip-rule="evenodd" d="M29.9847 14.2393L32.4666 14.2503L32.461 16.6015L29.979 16.5905L29.9847 14.2393Z" fill="white"/>
<path fill-rule="evenodd" clip-rule="evenodd" d="M49.8418 14.3276L52.3237 14.3386L52.318 16.6896L49.8361 16.6786L49.8418 14.3276Z" fill="white"/>
<path fill-rule="evenodd" clip-rule="evenodd" d="M54.8055 14.3496L57.288 14.3606L57.2824 16.7116L54.7998 16.7006L54.8055 14.3496ZM54.7998 16.7006L57.2824 16.7116L57.2767 19.0632L54.7942 19.0522L54.7998 16.7006Z" fill="white"/>
<path fill-rule="evenodd" clip-rule="evenodd" d="M59.77 14.3713L62.2519 14.3823L62.2463 16.7333L59.7643 16.7223L59.77 14.3713ZM59.7643 16.7223L62.2463 16.7333L62.2406 19.0849L59.7586 19.0739L59.7643 16.7223ZM62.2463 16.7333L64.7287 16.7444L64.723 19.096L62.2406 19.0849L62.2463 16.7333ZM64.7287 16.7444L67.2106 16.7554L67.2049 19.107L64.723 19.096L64.7287 16.7444ZM64.7401 12.0422L67.222 12.0532L67.2163 14.4043L64.7344 14.3933L64.7401 12.0422ZM64.7344 14.3933L67.2163 14.4043L67.2106 16.7554L64.7287 16.7444L64.7344 14.3933ZM67.2106 16.7554L69.6926 16.7664L69.6869 19.118L67.2049 19.107L67.2106 16.7554ZM69.6926 16.7664L72.175 16.7774L72.1693 19.129L69.6869 19.118L69.6926 16.7664ZM69.6983 14.4153L72.1807 14.4264L72.175 16.7774L69.6926 16.7664L69.6983 14.4153ZM59.7586 19.0739L62.2406 19.0849L62.2349 21.436L59.7529 21.425L59.7586 19.0739ZM64.723 19.096L67.2049 19.107L67.1993 21.458L64.7173 21.447L64.723 19.096ZM69.6869 19.118L72.1693 19.129L72.1636 21.4801L69.6812 21.4691L69.6869 19.118ZM64.7173 21.447L67.1993 21.458L67.1936 23.8091L64.7117 23.7981L64.7173 21.447ZM67.1993 21.458L69.6812 21.4691L69.6755 23.8201L67.1936 23.8091L67.1993 21.458ZM67.1936 23.8091L69.6755 23.8201L69.6698 26.1717L67.1879 26.1607L67.1936 23.8091Z" fill="white"/>
<path fill-rule="evenodd" clip-rule="evenodd" d="M22.5327 16.5574L25.0146 16.5685L25.0089 18.9201L22.527 18.909L22.5327 16.5574ZM25.0146 16.5685L27.4965 16.5795L27.4908 18.9311L25.0089 18.9201L25.0146 16.5685ZM25.0259 11.8665L27.5079 11.8775L27.5022 14.2285L25.0203 14.2175L25.0259 11.8665ZM25.0203 14.2175L27.5022 14.2285L27.4965 16.5795L25.0146 16.5685L25.0203 14.2175ZM25.0089 18.9201L27.4908 18.9311L27.4852 21.2821L25.0032 21.2711L25.0089 18.9201ZM27.4908 18.9311L29.9733 18.9421L29.9676 21.2931L27.4852 21.2821L27.4908 18.9311ZM29.9733 18.9421L32.4552 18.9531L32.4495 21.3042L29.9676 21.2931L29.9733 18.9421ZM32.4552 18.9531L34.9372 18.9641L34.9315 21.3152L32.4495 21.3042L32.4552 18.9531ZM32.4495 21.3042L34.9315 21.3152L34.9258 23.6662L32.4438 23.6552L32.4495 21.3042ZM34.9315 21.3152L37.4139 21.3262L37.4082 23.6772L34.9258 23.6662L34.9315 21.3152Z" fill="white"/>
<path fill-rule="evenodd" clip-rule="evenodd" d="M52.3123 19.0413L54.7942 19.0523L54.7885 21.4033L52.3066 21.3923L52.3123 19.0413ZM52.3066 21.3923L54.7885 21.4033L54.7828 23.7543L52.3009 23.7433L52.3066 21.3923ZM54.7885 21.4033L57.271 21.4144L57.2653 23.7654L54.7828 23.7543L54.7885 21.4033Z" fill="white"/>
<path fill-rule="evenodd" clip-rule="evenodd" d="M2.66446 21.1718L5.14634 21.1828L5.14065 23.5338L2.65876 23.5228L2.66446 21.1718ZM5.14634 21.1828L7.62822 21.1939L7.62259 23.5449L5.14065 23.5338L5.14634 21.1828ZM5.15204 18.8318L7.63391 18.8428L7.62822 21.1939L5.14634 21.1828L5.15204 18.8318ZM2.65876 23.5228L5.14065 23.5338L5.13495 25.8854L2.65307 25.8743L2.65876 23.5228ZM5.14065 23.5338L7.62259 23.5449L7.6169 25.8964L5.13495 25.8854L5.14065 23.5338ZM2.65307 25.8743L5.13495 25.8854L5.12925 28.2364L2.64738 28.2253L2.65307 25.8743ZM2.64738 28.2253L5.12925 28.2364L5.12363 30.588L2.64168 30.577L2.64738 28.2253ZM2.64168 30.577L5.12363 30.588L5.11793 32.939L2.63599 32.928L2.64168 30.577ZM5.12363 30.588L7.60551 30.599L7.59982 32.95L5.11793 32.939L5.12363 30.588Z" fill="white"/>
<path fill-rule="evenodd" clip-rule="evenodd" d="M10.1108 21.2046L12.5927 21.2156L12.587 23.5668L10.1051 23.5558L10.1108 21.2046Z" fill="white"/>
<path fill-rule="evenodd" clip-rule="evenodd" d="M39.8959 21.3368L42.3778 21.3478L42.3721 23.6988L39.8903 23.6878L39.8959 21.3368ZM39.8903 23.6878L42.3721 23.6988L42.3664 26.0504L39.8846 26.0394L39.8903 23.6878ZM39.8846 26.0394L42.3664 26.0504L42.3607 28.4014L39.8789 28.3904L39.8846 26.0394ZM42.3664 26.0504L44.8489 26.0614L44.8433 28.4124L42.3607 28.4014L42.3664 26.0504ZM44.8489 26.0614L47.3309 26.0724L47.3252 28.4234L44.8433 28.4124L44.8489 26.0614ZM32.478 9.54756L34.9599 9.55857L34.9542 11.9101L32.4724 11.8991L32.478 9.54756ZM32.4724 11.8991L34.9542 11.9101L34.9486 14.2611L32.4667 14.2501L32.4724 11.8991ZM34.9542 11.9101L37.4367 11.9212L37.431 14.2722L34.9486 14.2611L34.9542 11.9101ZM34.9486 14.2611L37.431 14.2722L37.4254 16.6232L34.9429 16.6121L34.9486 14.2611ZM34.9429 16.6121L37.4254 16.6232L37.4197 18.9748L34.9372 18.9637L34.9429 16.6121ZM37.4254 16.6232L39.9073 16.6342L39.9016 18.9858L37.4197 18.9748L37.4254 16.6232ZM39.9073 16.6342L42.3892 16.6452L42.3835 18.9968L39.9016 18.9858L39.9073 16.6342ZM39.9187 11.9322L42.4005 11.9432L42.3949 14.2942L39.913 14.2832L39.9187 11.9322ZM39.913 14.2832L42.3949 14.2942L42.3892 16.6452L39.9073 16.6342L39.913 14.2832ZM42.3892 16.6452L44.8717 16.6562L44.866 19.0078L42.3835 18.9968L42.3892 16.6452ZM44.8717 16.6562L47.3536 16.6673L47.3479 19.0188L44.866 19.0078L44.8717 16.6562ZM44.883 11.9542L47.365 11.9652L47.3593 14.3162L44.8774 14.3052L44.883 11.9542ZM47.365 11.9652L49.8474 11.9763L49.8417 14.3273L47.3593 14.3162L47.365 11.9652ZM44.9001 4.90063L47.382 4.91164L47.3764 7.26265L44.8944 7.25165L44.9001 4.90063ZM44.8944 7.25165L47.3764 7.26265L47.3707 9.61367L44.8887 9.60266L44.8944 7.25165ZM47.3764 7.26265L49.8588 7.27366L49.8531 9.62467L47.3707 9.61367L47.3764 7.26265ZM47.3707 9.61367L49.8531 9.62467L49.8474 11.9763L47.365 11.9652L47.3707 9.61367ZM44.8774 14.3052L47.3593 14.3162L47.3536 16.6673L44.8717 16.6562L44.8774 14.3052ZM47.3536 16.6673L49.8361 16.6783L49.8304 19.0299L47.3479 19.0188L47.3536 16.6673ZM44.866 19.0078L47.3479 19.0188L47.3423 21.3699L44.8603 21.3589L44.866 19.0078ZM47.3479 19.0188L49.8304 19.0299L49.8247 21.3809L47.3423 21.3699L47.3479 19.0188ZM44.8603 21.3589L47.3423 21.3699L47.3366 23.7209L44.8546 23.7099L44.8603 21.3589ZM47.3423 21.3699L49.8247 21.3809L49.819 23.7319L47.3366 23.7209L47.3423 21.3699ZM44.8546 23.7099L47.3366 23.7209L47.3309 26.0724L44.8489 26.0614L44.8546 23.7099ZM47.3366 23.7209L49.819 23.7319L49.8133 26.0834L47.3309 26.0724L47.3366 23.7209ZM49.819 23.7319L52.3009 23.7429L52.2953 26.0945L49.8133 26.0834L49.819 23.7319ZM39.8789 28.3904L42.3607 28.4014L42.3551 30.753L39.8732 30.742L39.8789 28.3904Z" fill="white"/>
<path fill-rule="evenodd" clip-rule="evenodd" d="M84.5743 21.5354L87.0563 21.5464L87.0506 23.8973L84.5686 23.8863L84.5743 21.5354Z" fill="white"/>
<path fill-rule="evenodd" clip-rule="evenodd" d="M12.5867 23.5672L15.0693 23.5782L15.0636 25.9297L12.5811 25.9187L12.5867 23.5672ZM15.0693 23.5782L17.5512 23.5892L17.5455 25.9408L15.0636 25.9297L15.0693 23.5782ZM17.5512 23.5892L20.0331 23.6003L20.0274 25.9518L17.5455 25.9408L17.5512 23.5892ZM12.5981 18.8652L15.0806 18.8762L15.0749 21.2272L12.5924 21.2162L12.5981 18.8652ZM15.0806 18.8762L17.5626 18.8872L17.5569 21.2382L15.0749 21.2272L15.0806 18.8762ZM17.5626 18.8872L20.0444 18.8983L20.0387 21.2493L17.5569 21.2382L17.5626 18.8872ZM20.0444 18.8983L22.5269 18.9093L22.5213 21.2603L20.0387 21.2493L20.0444 18.8983ZM17.5569 21.2382L20.0387 21.2493L20.0331 23.6003L17.5512 23.5892L17.5569 21.2382ZM20.0331 23.6003L22.5156 23.6113L22.5099 25.9628L20.0274 25.9518L20.0331 23.6003ZM20.0274 25.9518L22.5099 25.9628L22.5042 28.3138L20.0217 28.3028L20.0274 25.9518ZM22.5099 25.9628L24.9918 25.9738L24.9861 28.3248L22.5042 28.3138L22.5099 25.9628Z" fill="white"/>
<path fill-rule="evenodd" clip-rule="evenodd" d="M62.2292 23.7874L64.7117 23.7984L64.706 26.1501L62.2235 26.139L62.2292 23.7874Z" fill="white"/>
<path fill-rule="evenodd" clip-rule="evenodd" d="M72.158 23.8314L74.6399 23.8424L74.6342 26.194L72.1523 26.1829L72.158 23.8314ZM74.6399 23.8424L77.1224 23.8534L77.1167 26.205L74.6342 26.194L74.6399 23.8424ZM77.1224 23.8534L79.6043 23.8645L79.5986 26.216L77.1167 26.205L77.1224 23.8534ZM77.1338 19.1514L79.6157 19.1624L79.61 21.5135L77.1281 21.5024L77.1338 19.1514ZM79.6157 19.1624L82.0976 19.1734L82.0919 21.5245L79.61 21.5135L79.6157 19.1624ZM82.0976 19.1734L84.5801 19.1844L84.5744 21.5355L82.0919 21.5245L82.0976 19.1734ZM77.1281 21.5024L79.61 21.5135L79.6043 23.8645L77.1224 23.8534L77.1281 21.5024ZM79.61 21.5135L82.0919 21.5245L82.0862 23.8755L79.6043 23.8645L79.61 21.5135ZM77.1167 26.205L79.5986 26.216L79.5929 28.567L77.1111 28.556L77.1167 26.205ZM79.5986 26.216L82.0805 26.227L82.0748 28.5781L79.5929 28.567L79.5986 26.216Z" fill="white"/>
<path fill-rule="evenodd" clip-rule="evenodd" d="M7.61104 28.2475L10.0935 28.2585L10.0878 30.61L7.60535 30.599L7.61104 28.2475ZM10.0935 28.2585L12.5755 28.2695L12.5698 30.6211L10.0878 30.61L10.0935 28.2585ZM10.0992 25.9075L12.5811 25.9185L12.5755 28.2695L10.0935 28.2585L10.0992 25.9075Z" fill="white"/>
<path fill-rule="evenodd" clip-rule="evenodd" d="M15.0579 28.2805L17.5398 28.2915L17.5342 30.6427L15.0522 30.6317L15.0579 28.2805Z" fill="white"/>
<path fill-rule="evenodd" clip-rule="evenodd" d="M24.9862 28.3247L27.468 28.3358L27.4623 30.6874L24.9805 30.6764L24.9862 28.3247Z" fill="white"/>
<path fill-rule="evenodd" clip-rule="evenodd" d="M47.3251 28.4233L49.8076 28.4343L49.8019 30.7861L47.3195 30.775L47.3251 28.4233Z" fill="white"/>
<path fill-rule="evenodd" clip-rule="evenodd" d="M96.9674 28.644L99.4498 28.6551L99.4441 31.0066L96.9617 30.9956L96.9674 28.644ZM99.4498 28.6551L101.932 28.6661L101.926 31.0176L99.4441 31.0066L99.4498 28.6551ZM84.5629 26.2379L87.0448 26.2489L87.0391 28.6L84.5573 28.5889L84.5629 26.2379ZM87.0448 26.2489L89.5267 26.26L89.5211 28.611L87.0391 28.6L87.0448 26.2489ZM89.5267 26.26L92.0092 26.271L92.0035 28.622L89.5211 28.611L89.5267 26.26ZM92.0092 26.271L94.4911 26.282L94.4854 28.633L92.0035 28.622L92.0092 26.271ZM92.0149 23.9194L94.4968 23.9304L94.4911 26.282L92.0092 26.271L92.0149 23.9194ZM94.4968 23.9304L96.9787 23.9414L96.9731 26.293L94.4911 26.282L94.4968 23.9304ZM87.0618 19.1953L89.5438 19.2063L89.5381 21.5573L87.0562 21.5463L87.0618 19.1953ZM89.5438 19.2063L92.0262 19.2174L92.0206 21.5684L89.5381 21.5573L89.5438 19.2063ZM92.0262 19.2174L94.5082 19.2284L94.5025 21.5794L92.0206 21.5684L92.0262 19.2174ZM94.5082 19.2284L96.9901 19.2394L96.9844 21.5904L94.5025 21.5794L94.5082 19.2284ZM96.9901 19.2394L99.4726 19.2504L99.4669 21.6014L96.9844 21.5904L96.9901 19.2394ZM94.5025 21.5794L96.9844 21.5904L96.9787 23.9414L94.4968 23.9304L94.5025 21.5794ZM96.9844 21.5904L99.4669 21.6014L99.4612 23.9524L96.9787 23.9414L96.9844 21.5904ZM99.4669 21.6014L101.949 21.6124L101.943 23.9634L99.4612 23.9524L99.4669 21.6014ZM99.4612 23.9524L101.943 23.9634L101.937 26.3151L99.4555 26.304L99.4612 23.9524ZM99.4555 26.304L101.937 26.3151L101.932 28.6661L99.4498 28.6551L99.4555 26.304ZM87.0391 28.6L89.5211 28.611L89.5154 30.9625L87.0334 30.9515L87.0391 28.6ZM87.0334 30.9515L89.5154 30.9625L89.5097 33.3135L87.0278 33.3025L87.0334 30.9515ZM96.9617 30.9956L99.4441 31.0066L99.4384 33.3576L96.956 33.3466L96.9617 30.9956ZM99.4441 31.0066L101.926 31.0176L101.92 33.3686L99.4384 33.3576L99.4441 31.0066ZM99.4384 33.3576L101.92 33.3686L101.915 35.7197L99.4328 35.7086L99.4384 33.3576Z" fill="white"/>
<path fill-rule="evenodd" clip-rule="evenodd" d="M29.945 30.6984L32.4269 30.7094L32.4212 33.0604L29.9393 33.0494L29.945 30.6984ZM32.4269 30.7094L34.9088 30.7204L34.9032 33.0714L32.4212 33.0604L32.4269 30.7094ZM27.4796 23.6333L29.9621 23.6443L29.9564 25.9959L27.4739 25.9848L27.4796 23.6333ZM29.9621 23.6443L32.4439 23.6554L32.4383 26.0069L29.9564 25.9959L29.9621 23.6443ZM29.9564 25.9959L32.4383 26.0069L32.4326 28.3579L29.9507 28.3469L29.9564 25.9959ZM32.4383 26.0069L34.9202 26.0179L34.9145 28.3689L32.4326 28.3579L32.4383 26.0069ZM32.4326 28.3579L34.9145 28.3689L34.9088 30.7204L32.4269 30.7094L32.4326 28.3579ZM34.9145 28.3689L37.397 28.3799L37.3913 30.7315L34.9088 30.7204L34.9145 28.3689ZM29.9393 33.0494L32.4212 33.0604L32.4155 35.4114L29.9336 35.4004L29.9393 33.0494Z" fill="white"/>
<path fill-rule="evenodd" clip-rule="evenodd" d="M44.8377 30.7642L47.3196 30.7752L47.3139 33.1261L44.832 33.115L44.8377 30.7642Z" fill="white"/>
<path fill-rule="evenodd" clip-rule="evenodd" d="M91.998 30.9739L94.4799 30.9849L94.4742 33.3358L91.9923 33.3248L91.998 30.9739Z" fill="white"/>
<path fill-rule="evenodd" clip-rule="evenodd" d="M0.153399 32.917L2.63587 32.928L2.63024 35.2789L0.147705 35.2679L0.153399 32.917Z" fill="white"/>
<path fill-rule="evenodd" clip-rule="evenodd" d="M82.0634 33.2805L84.5459 33.2916L84.5402 35.6425L82.0577 35.6314L82.0634 33.2805Z" fill="white"/>
<path fill-rule="evenodd" clip-rule="evenodd" d="M94.4741 33.3354L96.9559 33.3465L96.9503 35.6976L94.4684 35.6866L94.4741 33.3354Z" fill="white"/>
<path fill-rule="evenodd" clip-rule="evenodd" d="M34.8973 35.4221L37.3798 35.4332L37.3741 37.7848L34.8916 37.7738L34.8973 35.4221Z" fill="white"/>
<path fill-rule="evenodd" clip-rule="evenodd" d="M91.9866 35.6755L94.4686 35.6865L94.4629 38.0382L91.981 38.0272L91.9866 35.6755ZM91.981 38.0272L94.4629 38.0382L94.4572 40.3892L91.9753 40.3782L91.981 38.0272ZM91.9753 40.3782L94.4572 40.3892L94.4515 42.7403L91.9696 42.7293L91.9753 40.3782Z" fill="white"/>
<path fill-rule="evenodd" clip-rule="evenodd" d="M0.142104 37.6194L2.62464 37.6304L2.61895 39.9813L0.136475 39.9703L0.142104 37.6194Z" fill="white"/>
<path fill-rule="evenodd" clip-rule="evenodd" d="M7.58272 40.0039L10.0652 40.0149L10.0595 42.3658L7.57703 42.3548L7.58272 40.0039Z" fill="white"/>
<path fill-rule="evenodd" clip-rule="evenodd" d="M24.9577 40.0807L27.4397 40.0917L27.434 42.4427L24.9521 42.4317L24.9577 40.0807ZM27.4397 40.0917L29.9222 40.1027L29.9165 42.4537L27.434 42.4427L27.4397 40.0917ZM7.59969 32.95L10.0822 32.961L10.0765 35.312L7.59399 35.301L7.59969 32.95ZM10.0822 32.961L12.5641 32.9721L12.5584 35.3231L10.0765 35.312L10.0822 32.961ZM12.5641 32.9721L15.0466 32.9831L15.0409 35.3341L12.5584 35.3231L12.5641 32.9721ZM12.5698 30.6211L15.0523 30.6321L15.0466 32.9831L12.5641 32.9721L12.5698 30.6211ZM15.0466 32.9831L17.5285 32.9941L17.5228 35.3451L15.0409 35.3341L15.0466 32.9831ZM10.0765 35.312L12.5584 35.3231L12.5527 37.6746L10.0708 37.6636L10.0765 35.312ZM12.5584 35.3231L15.0409 35.3341L15.0353 37.6856L12.5527 37.6746L12.5584 35.3231ZM10.0708 37.6636L12.5527 37.6746L12.5471 40.0256L10.0651 40.0146L10.0708 37.6636ZM12.5527 37.6746L15.0353 37.6856L15.0296 40.0366L12.5471 40.0256L12.5527 37.6746ZM15.0353 37.6856L17.5171 37.6966L17.5114 40.0476L15.0296 40.0366L15.0353 37.6856ZM17.5171 37.6966L19.9991 37.7077L19.9934 40.0587L17.5114 40.0476L17.5171 37.6966ZM19.9991 37.7077L22.4816 37.7187L22.4759 40.0697L19.9934 40.0587L19.9991 37.7077ZM20.0104 33.0051L22.4929 33.0161L22.4873 35.3671L20.0047 35.3561L20.0104 33.0051ZM22.4929 33.0161L24.9748 33.0272L24.9691 35.3782L22.4873 35.3671L22.4929 33.0161ZM22.4986 30.6651L24.9805 30.6762L24.9748 33.0272L22.4929 33.0161L22.4986 30.6651ZM24.9748 33.0272L27.4567 33.0382L27.4511 35.3892L24.9691 35.3782L24.9748 33.0272ZM20.0047 35.3561L22.4873 35.3671L22.4816 37.7187L19.9991 37.7077L20.0047 35.3561ZM24.9691 35.3782L27.4511 35.3892L27.4454 37.7407L24.9634 37.7297L24.9691 35.3782ZM27.4511 35.3892L29.9336 35.4002L29.9279 37.7517L27.4454 37.7407L27.4511 35.3892ZM27.4454 37.7407L29.9279 37.7517L29.9222 40.1027L27.4397 40.0917L27.4454 37.7407ZM17.5114 40.0476L19.9934 40.0587L19.9877 42.4097L17.5058 42.3986L17.5114 40.0476ZM19.9934 40.0587L22.4759 40.0697L22.4702 42.4207L19.9877 42.4097L19.9934 40.0587ZM29.9222 40.1027L32.4041 40.1138L32.3984 42.4648L29.9165 42.4537L29.9222 40.1027ZM32.4041 40.1138L34.886 40.1248L34.8803 42.4758L32.3984 42.4648L32.4041 40.1138ZM32.4097 37.7628L34.8917 37.7738L34.886 40.1248L32.4041 40.1138L32.4097 37.7628ZM27.434 42.4427L29.9165 42.4537L29.9108 44.8053L27.4283 44.7943L27.434 42.4427ZM32.3984 42.4648L34.8803 42.4758L34.8746 44.8273L32.3927 44.8163L32.3984 42.4648ZM32.3927 44.8163L34.8746 44.8273L34.869 47.1783L32.387 47.1673L32.3927 44.8163Z" fill="white"/>
<path fill-rule="evenodd" clip-rule="evenodd" d="M0.130694 42.322L2.61317 42.333L2.60748 44.6845L0.125 44.6735L0.130694 42.322Z" fill="white"/>
<path fill-rule="evenodd" clip-rule="evenodd" d="M5.09517 42.344L7.57705 42.3551L7.57136 44.7067L5.08948 44.6957L5.09517 42.344Z" fill="white"/>
<path fill-rule="evenodd" clip-rule="evenodd" d="M15.024 42.3877L17.5059 42.3987L17.5003 44.7504L15.0183 44.7394L15.024 42.3877Z" fill="white"/>
<path fill-rule="evenodd" clip-rule="evenodd" d="M22.4703 42.4211L24.9522 42.4321L24.9465 44.7836L22.4646 44.7726L22.4703 42.4211Z" fill="white"/>
<path fill-rule="evenodd" clip-rule="evenodd" d="M87.0051 42.7073L89.487 42.7183L89.4813 45.0698L86.9994 45.0587L87.0051 42.7073ZM89.487 42.7183L91.9695 42.7293L91.9638 45.0808L89.4813 45.0698L89.487 42.7183Z" fill="white"/>
<path fill-rule="evenodd" clip-rule="evenodd" d="M94.4514 42.7402L96.9334 42.7512L96.9277 45.103L94.4458 45.092L94.4514 42.7402Z" fill="white"/>
<path fill-rule="evenodd" clip-rule="evenodd" d="M10.0537 44.7173L12.5357 44.7283L12.53 47.0793L10.0481 47.0683L10.0537 44.7173ZM12.5357 44.7283L15.0181 44.7394L15.0125 47.0904L12.53 47.0793L12.5357 44.7283ZM12.53 47.0793L15.0125 47.0904L15.0068 49.4413L12.5243 49.4303L12.53 47.0793ZM15.0125 47.0904L17.4944 47.1014L17.4887 49.4524L15.0068 49.4413L15.0125 47.0904ZM17.4944 47.1014L19.9763 47.1124L19.9706 49.4634L17.4887 49.4524L17.4944 47.1014ZM19.9763 47.1124L22.4588 47.1234L22.4531 49.4744L19.9706 49.4634L19.9763 47.1124ZM22.4588 47.1234L24.9407 47.1344L24.935 49.4854L22.4531 49.4744L22.4588 47.1234ZM24.9407 47.1344L27.4226 47.1455L27.4169 49.4964L24.935 49.4854L24.9407 47.1344ZM27.4226 47.1455L29.9051 47.1565L29.8994 49.5075L27.4169 49.4964L27.4226 47.1455ZM29.9051 47.1565L32.387 47.1675L32.3813 49.5185L29.8994 49.5075L29.9051 47.1565ZM24.935 49.4854L27.4169 49.4964L27.4113 51.848L24.9293 51.837L24.935 49.4854ZM27.4169 49.4964L29.8994 49.5075L29.8937 51.859L27.4113 51.848L27.4169 49.4964ZM29.8994 49.5075L32.3813 49.5185L32.3756 51.87L29.8937 51.859L29.8994 49.5075ZM32.3813 49.5185L34.8632 49.5295L34.8575 51.881L32.3756 51.87L32.3813 49.5185Z" fill="white"/>
<path fill-rule="evenodd" clip-rule="evenodd" d="M37.3573 44.8386L39.8391 44.8497L39.8334 47.2005L37.3516 47.1895L37.3573 44.8386Z" fill="white"/>
<path fill-rule="evenodd" clip-rule="evenodd" d="M96.9276 45.1032L99.4101 45.1142L99.4044 47.4653L96.922 47.4542L96.9276 45.1032ZM99.4101 45.1142L101.892 45.1252L101.886 47.4763L99.4044 47.4653L99.4101 45.1142ZM99.4272 38.0605L101.909 38.0716L101.903 40.4226L99.4215 40.4116L99.4272 38.0605ZM99.4215 40.4116L101.903 40.4226L101.898 42.7736L99.4158 42.7626L99.4215 40.4116ZM99.4158 42.7626L101.898 42.7736L101.892 45.1252L99.4101 45.1142L99.4158 42.7626ZM96.922 47.4542L99.4044 47.4653L99.3988 49.8163L96.9163 49.8052L96.922 47.4542ZM99.4044 47.4653L101.886 47.4763L101.881 49.8273L99.3988 49.8163L99.4044 47.4653ZM99.3988 49.8163L101.881 49.8273L101.875 52.1789L99.3931 52.1678L99.3988 49.8163ZM99.3931 52.1678L101.875 52.1789L101.869 54.5299L99.3874 54.5189L99.3931 52.1678Z" fill="white"/>
<path fill-rule="evenodd" clip-rule="evenodd" d="M15.0012 51.7935L17.4831 51.8045L17.4774 54.1557L14.9955 54.1447L15.0012 51.7935Z" fill="white"/>
<path fill-rule="evenodd" clip-rule="evenodd" d="M39.8221 51.903L42.3039 51.914L42.2983 54.265L39.8164 54.254L39.8221 51.903ZM42.3039 51.914L44.7864 51.925L44.7807 54.2761L42.2983 54.265L42.3039 51.914ZM39.8334 47.2004L42.3153 47.2114L42.3096 49.5624L39.8277 49.5514L39.8334 47.2004ZM42.3153 47.2114L44.7978 47.2224L44.7921 49.5734L42.3096 49.5624L42.3153 47.2114ZM44.7978 47.2224L47.2797 47.2334L47.2741 49.5844L44.7921 49.5734L44.7978 47.2224ZM37.3742 37.7846L39.8562 37.7956L39.8505 40.1467L37.3685 40.1357L37.3742 37.7846ZM39.8562 37.7956L42.3381 37.8066L42.3324 40.1577L39.8505 40.1467L39.8562 37.7956ZM39.8675 33.093L42.3494 33.104L42.3437 35.4551L39.8618 35.4441L39.8675 33.093ZM42.3494 33.104L44.8319 33.115L44.8262 35.4661L42.3437 35.4551L42.3494 33.104ZM39.8618 35.4441L42.3437 35.4551L42.3381 37.8066L39.8562 37.7956L39.8618 35.4441ZM39.8505 40.1467L42.3324 40.1577L42.3267 42.5087L39.8448 42.4977L39.8505 40.1467ZM42.3324 40.1577L44.8148 40.1687L44.8092 42.5198L42.3267 42.5087L42.3324 40.1577ZM42.3267 42.5087L44.8092 42.5198L44.8035 44.8714L42.321 44.8604L42.3267 42.5087ZM44.8092 42.5198L47.2911 42.5308L47.2854 44.8824L44.8035 44.8714L44.8092 42.5198ZM44.8035 44.8714L47.2854 44.8824L47.2797 47.2334L44.7978 47.2224L44.8035 44.8714ZM47.2854 44.8824L49.7679 44.8934L49.7622 47.2444L47.2797 47.2334L47.2854 44.8824ZM49.7679 44.8934L52.2498 44.9044L52.2441 47.2555L49.7622 47.2444L49.7679 44.8934ZM47.2797 47.2334L49.7622 47.2444L49.7565 49.5955L47.2741 49.5844L47.2797 47.2334ZM42.3096 49.5624L44.7921 49.5734L44.7864 51.925L42.3039 51.914L42.3096 49.5624ZM44.7921 49.5734L47.2741 49.5844L47.2684 51.9361L44.7864 51.925L44.7921 49.5734ZM44.7864 51.925L47.2684 51.9361L47.2627 54.2871L44.7807 54.2761L44.7864 51.925ZM39.8164 54.254L42.2983 54.265L42.2926 56.6166L39.8107 56.6056L39.8164 54.254ZM44.7807 54.2761L47.2627 54.2871L47.257 56.6387L44.7751 56.6277L44.7807 54.2761Z" fill="white"/>
<path fill-rule="evenodd" clip-rule="evenodd" d="M59.6789 51.9915L62.1608 52.0025L62.1551 54.3534L59.6732 54.3424L59.6789 51.9915ZM62.1608 52.0025L64.6432 52.0135L64.6376 54.3644L62.1551 54.3534L62.1608 52.0025Z" fill="white"/>
<path fill-rule="evenodd" clip-rule="evenodd" d="M72.0898 52.0464L74.5717 52.0574L74.566 54.4083L72.0841 54.3973L72.0898 52.0464Z" fill="white"/>
<path fill-rule="evenodd" clip-rule="evenodd" d="M32.37 54.2207L34.8519 54.2318L34.8462 56.5834L32.3643 56.5724L32.37 54.2207ZM34.8519 54.2318L37.3344 54.2428L37.3287 56.5944L34.8462 56.5834L34.8519 54.2318ZM32.3643 56.5724L34.8462 56.5834L34.8405 58.9344L32.3586 58.9234L32.3643 56.5724ZM34.8462 56.5834L37.3287 56.5944L37.3231 58.9454L34.8405 58.9344L34.8462 56.5834ZM34.8405 58.9344L37.3231 58.9454L37.3174 61.2965L34.8349 61.2855L34.8405 58.9344Z" fill="white"/>
<path fill-rule="evenodd" clip-rule="evenodd" d="M74.5661 54.4084L77.0486 54.4195L77.043 56.7712L74.5604 56.7602L74.5661 54.4084Z" fill="white"/>
<path fill-rule="evenodd" clip-rule="evenodd" d="M47.257 56.6389L49.7395 56.6499L49.7339 59.0008L47.2513 58.9898L47.257 56.6389Z" fill="white"/>
<path fill-rule="evenodd" clip-rule="evenodd" d="M96.8993 56.8591L99.3818 56.8701L99.3761 59.2211L96.8936 59.2101L96.8993 56.8591ZM99.3818 56.8701L101.864 56.8811L101.858 59.2321L99.3761 59.2211L99.3818 56.8701ZM96.8936 59.2101L99.3761 59.2211L99.3704 61.5721L96.8879 61.5611L96.8936 59.2101ZM99.3761 59.2211L101.858 59.2321L101.852 61.5831L99.3704 61.5721L99.3761 59.2211ZM99.3704 61.5721L101.852 61.5831L101.847 63.9347L99.3648 63.9237L99.3704 61.5721Z" fill="white"/>
<path fill-rule="evenodd" clip-rule="evenodd" d="M39.8049 58.9568L42.2868 58.9678L42.2811 61.319L39.7992 61.308L39.8049 58.9568ZM42.2868 58.9678L44.7693 58.9789L44.7636 61.33L42.2811 61.319L42.2868 58.9678ZM44.7693 58.9789L47.2512 58.9899L47.2455 61.341L44.7636 61.33L44.7693 58.9789ZM44.7636 61.33L47.2455 61.341L47.2399 63.6928L44.7579 63.6817L44.7636 61.33Z" fill="white"/>
<path fill-rule="evenodd" clip-rule="evenodd" d="M32.353 61.2749L34.8349 61.2859L34.8292 63.6374L32.3473 63.6264L32.353 61.2749Z" fill="white"/>
<path fill-rule="evenodd" clip-rule="evenodd" d="M37.3173 61.2969L39.7992 61.3079L39.7935 63.6594L37.3116 63.6483L37.3173 61.2969Z" fill="white"/>
<path fill-rule="evenodd" clip-rule="evenodd" d="M49.7281 61.3518L52.21 61.3628L52.2043 63.7145L49.7224 63.7035L49.7281 61.3518Z" fill="white"/>
<path fill-rule="evenodd" clip-rule="evenodd" d="M0.0794816 63.4829L2.56203 63.4939L2.55633 65.8448L0.0738525 65.8338L0.0794816 63.4829Z" fill="white"/>
<path fill-rule="evenodd" clip-rule="evenodd" d="M34.8293 63.6375L37.3117 63.6485L37.306 65.9995L34.8236 65.9885L34.8293 63.6375ZM34.8236 65.9885L37.306 65.9995L37.3004 68.3505L34.8179 68.3395L34.8236 65.9885Z" fill="white"/>
<path fill-rule="evenodd" clip-rule="evenodd" d="M52.2044 63.7146L54.6863 63.7256L54.6806 66.0765L52.1987 66.0655L52.2044 63.7146Z" fill="white"/>
<path fill-rule="evenodd" clip-rule="evenodd" d="M64.6151 63.7695L67.097 63.7805L67.0913 66.1317L64.6094 66.1207L64.6151 63.7695Z" fill="white"/>
<path fill-rule="evenodd" clip-rule="evenodd" d="M96.8821 63.9131L99.3646 63.9242L99.359 66.275L96.8765 66.2639L96.8821 63.9131Z" fill="white"/>
<path fill-rule="evenodd" clip-rule="evenodd" d="M54.6806 66.0764L57.1631 66.0874L57.1574 68.4385L54.6749 68.4274L54.6806 66.0764ZM54.6749 68.4274L57.1574 68.4385L57.1517 70.79L54.6692 70.779L54.6749 68.4274ZM57.1574 68.4385L59.6393 68.4495L59.6336 70.8011L57.1517 70.79L57.1574 68.4385Z" fill="white"/>
<path fill-rule="evenodd" clip-rule="evenodd" d="M67.0913 66.1318L69.5732 66.1428L69.5675 68.4938L67.0856 68.4828L67.0913 66.1318Z" fill="white"/>
<path fill-rule="evenodd" clip-rule="evenodd" d="M99.359 66.2747L101.841 66.2857L101.835 68.6367L99.3533 68.6257L99.359 66.2747ZM99.3533 68.6257L101.835 68.6367L101.83 70.9883L99.3476 70.9773L99.3533 68.6257ZM99.3476 70.9773L101.83 70.9883L101.824 73.3394L99.3419 73.3284L99.3476 70.9773Z" fill="white"/>
<path fill-rule="evenodd" clip-rule="evenodd" d="M17.4432 68.2625L19.9251 68.2735L19.9194 70.6247L17.4375 70.6136L17.4432 68.2625Z" fill="white"/>
<path fill-rule="evenodd" clip-rule="evenodd" d="M64.6037 68.4719L67.0856 68.4829L67.0799 70.8341L64.598 70.8231L64.6037 68.4719Z" fill="white"/>
<path fill-rule="evenodd" clip-rule="evenodd" d="M86.9426 68.5713L89.4245 68.5823L89.4188 70.9338L86.9369 70.9228L86.9426 68.5713Z" fill="white"/>
<path fill-rule="evenodd" clip-rule="evenodd" d="M9.99135 70.5808L12.4733 70.5919L12.4676 72.9429L9.98566 72.9318L9.99135 70.5808ZM12.4733 70.5919L14.9558 70.6029L14.9501 72.9539L12.4676 72.9429L12.4733 70.5919ZM0.0625785 70.5368L2.54505 70.5478L2.53936 72.8988L0.0568848 72.8878L0.0625785 70.5368ZM2.54505 70.5478L5.027 70.5588L5.0213 72.9098L2.53936 72.8988L2.54505 70.5478ZM5.027 70.5588L7.50888 70.5698L7.50318 72.9208L5.0213 72.9098L5.027 70.5588ZM2.55644 65.8452L5.03832 65.8562L5.03263 68.2072L2.55075 68.1962L2.55644 65.8452ZM5.03832 65.8562L7.52026 65.8672L7.51457 68.2182L5.03263 68.2072L5.03832 65.8562ZM5.04402 63.5052L7.52596 63.5162L7.52026 65.8672L5.03832 65.8562L5.04402 63.5052ZM7.52026 65.8672L10.0027 65.8782L9.99704 68.2293L7.51457 68.2182L7.52026 65.8672ZM10.0027 65.8782L12.4846 65.8892L12.479 68.2403L9.99704 68.2293L10.0027 65.8782ZM2.58485 54.089L5.06673 54.1L5.0611 56.4516L2.57915 56.4405L2.58485 54.089ZM2.57915 56.4405L5.0611 56.4516L5.0554 58.8026L2.57346 58.7916L2.57915 56.4405ZM5.0611 56.4516L7.54298 56.4626L7.53728 58.8136L5.0554 58.8026L5.0611 56.4516ZM7.54298 56.4626L10.0255 56.4736L10.0198 58.8246L7.53728 58.8136L7.54298 56.4626ZM0.119393 47.0243L2.60187 47.0354L2.59624 49.3864L0.113696 49.3754L0.119393 47.0243ZM2.60187 47.0354L5.08381 47.0464L5.07812 49.3974L2.59624 49.3864L2.60187 47.0354ZM2.60756 44.6843L5.0895 44.6954L5.08381 47.0464L2.60187 47.0354L2.60756 44.6843ZM0.113696 49.3754L2.59624 49.3864L2.59054 51.738L0.108002 51.727L0.113696 49.3754ZM2.59624 49.3864L5.07812 49.3974L5.07242 51.749L2.59054 51.738L2.59624 49.3864ZM5.07812 49.3974L7.56006 49.4084L7.55437 51.76L5.07242 51.749L5.07812 49.3974ZM7.56006 49.4084L10.0425 49.4194L10.0368 51.771L7.55437 51.76L7.56006 49.4084ZM10.0425 49.4194L12.5244 49.4305L12.5187 51.7821L10.0368 51.771L10.0425 49.4194ZM7.55437 51.76L10.0368 51.771L10.0311 54.122L7.54867 54.111L7.55437 51.76ZM10.0368 51.771L12.5187 51.7821L12.5131 54.1331L10.0311 54.122L10.0368 51.771ZM7.54867 54.111L10.0311 54.122L10.0255 56.4736L7.54298 56.4626L7.54867 54.111ZM2.57346 58.7916L5.0554 58.8026L5.04971 61.1536L2.56777 61.1426L2.57346 58.7916ZM5.0554 58.8026L7.53728 58.8136L7.53159 61.1647L5.04971 61.1536L5.0554 58.8026ZM7.53728 58.8136L10.0198 58.8246L10.0141 61.1757L7.53159 61.1647L7.53728 58.8136ZM10.0198 58.8246L12.5017 58.8357L12.496 61.1867L10.0141 61.1757L10.0198 58.8246ZM2.56777 61.1426L5.04971 61.1536L5.04402 63.5052L2.56214 63.4941L2.56777 61.1426ZM7.53159 61.1647L10.0141 61.1757L10.0084 63.5272L7.52596 63.5162L7.53159 61.1647ZM10.0141 61.1757L12.496 61.1867L12.4903 63.5382L10.0084 63.5272L10.0141 61.1757ZM12.496 61.1867L14.9785 61.1977L14.9728 63.5493L12.4903 63.5382L12.496 61.1867ZM14.9785 61.1977L17.4604 61.2087L17.4547 63.5603L14.9728 63.5493L14.9785 61.1977ZM10.0084 63.5272L12.4903 63.5382L12.4846 65.8892L10.0027 65.8782L10.0084 63.5272ZM12.4903 63.5382L14.9728 63.5493L14.9672 65.9003L12.4846 65.8892L12.4903 63.5382ZM12.4846 65.8892L14.9672 65.9003L14.9615 68.2513L12.479 68.2403L12.4846 65.8892ZM14.9672 65.9003L17.449 65.9113L17.4433 68.2623L14.9615 68.2513L14.9672 65.9003ZM5.03263 68.2072L7.51457 68.2182L7.50888 70.5698L5.027 70.5588L5.03263 68.2072ZM7.51457 68.2182L9.99704 68.2293L9.99135 70.5808L7.50888 70.5698L7.51457 68.2182ZM12.479 68.2403L14.9615 68.2513L14.9558 70.6029L12.4733 70.5919L12.479 68.2403ZM14.9558 70.6029L17.4376 70.6139L17.432 72.9649L14.9501 72.9539L14.9558 70.6029ZM5.0213 72.9098L7.50318 72.9208L7.49749 75.2718L5.01561 75.2608L5.0213 72.9098Z" fill="white"/>
<path fill-rule="evenodd" clip-rule="evenodd" d="M27.3659 70.658L29.8484 70.669L29.8427 73.02L27.3602 73.009L27.3659 70.658ZM29.8484 70.669L32.3303 70.68L32.3246 73.031L29.8427 73.02L29.8484 70.669ZM12.5074 56.4847L14.9899 56.4957L14.9842 58.8467L12.5017 58.8357L12.5074 56.4847ZM14.9899 56.4957L17.4718 56.5067L17.4661 58.8577L14.9842 58.8467L14.9899 56.4957ZM17.4718 56.5067L19.9537 56.5178L19.948 58.8688L17.4661 58.8577L17.4718 56.5067ZM19.9537 56.5178L22.4362 56.5288L22.4305 58.8798L19.948 58.8688L19.9537 56.5178ZM19.9651 51.8152L22.4476 51.8262L22.4419 54.1773L19.9594 54.1662L19.9651 51.8152ZM22.4476 51.8262L24.9294 51.8373L24.9238 54.1883L22.4419 54.1773L22.4476 51.8262ZM19.9594 54.1662L22.4419 54.1773L22.4362 56.5288L19.9537 56.5178L19.9594 54.1662ZM17.4661 58.8577L19.948 58.8688L19.9423 61.2198L17.4604 61.2088L17.4661 58.8577ZM19.948 58.8688L22.4305 58.8798L22.4248 61.2308L19.9423 61.2198L19.948 58.8688ZM22.4305 58.8798L24.9124 58.8908L24.9067 61.2418L22.4248 61.2308L22.4305 58.8798ZM24.9124 58.8908L27.3943 58.9018L27.3886 61.2528L24.9067 61.2418L24.9124 58.8908ZM27.3943 58.9018L29.8768 58.9128L29.8712 61.2639L27.3886 61.2528L27.3943 58.9018ZM24.9238 54.1883L27.4057 54.1993L27.4 56.5508L24.9181 56.5398L24.9238 54.1883ZM27.4057 54.1993L29.8882 54.2103L29.8825 56.5618L27.4 56.5508L27.4057 54.1993ZM27.4 56.5508L29.8825 56.5618L29.8768 58.9128L27.3943 58.9018L27.4 56.5508ZM22.4248 61.2308L24.9067 61.2418L24.901 63.5934L22.4192 63.5824L22.4248 61.2308ZM27.3886 61.2528L29.8712 61.2639L29.8655 63.6155L27.383 63.6044L27.3886 61.2528ZM22.4192 63.5824L24.901 63.5934L24.8953 65.9444L22.4135 65.9334L22.4192 63.5824ZM24.901 63.5934L27.383 63.6044L27.3773 65.9555L24.8953 65.9444L24.901 63.5934ZM27.383 63.6044L29.8655 63.6155L29.8598 65.9665L27.3773 65.9555L27.383 63.6044ZM29.8655 63.6155L32.3473 63.6265L32.3416 65.9775L29.8598 65.9665L29.8655 63.6155ZM22.4135 65.9334L24.8953 65.9444L24.8897 68.2954L22.4078 68.2844L22.4135 65.9334ZM27.3773 65.9555L29.8598 65.9665L29.8541 68.3175L27.3716 68.3065L27.3773 65.9555ZM29.8598 65.9665L32.3416 65.9775L32.336 68.3285L29.8541 68.3175L29.8598 65.9665ZM29.8541 68.3175L32.336 68.3285L32.3303 70.68L29.8484 70.669L29.8541 68.3175ZM32.3303 70.68L34.8122 70.691L34.8065 73.0421L32.3246 73.031L32.3303 70.68Z" fill="white"/>
<path fill-rule="evenodd" clip-rule="evenodd" d="M67.0799 70.8342L69.5619 70.8452L69.5562 73.1962L67.0742 73.1852L67.0799 70.8342Z" fill="white"/>
<path fill-rule="evenodd" clip-rule="evenodd" d="M72.0443 70.8561L74.5262 70.8671L74.5206 73.2182L72.0386 73.2072L72.0443 70.8561ZM74.5262 70.8671L77.0087 70.8782L77.003 73.2292L74.5206 73.2182L74.5262 70.8671ZM74.5319 68.5156L77.0143 68.5266L77.0087 70.8782L74.5262 70.8671L74.5319 68.5156ZM74.5206 73.2182L77.003 73.2292L76.9973 75.5802L74.5148 75.5692L74.5206 73.2182ZM77.003 73.2292L79.4849 73.2402L79.4792 75.5912L76.9973 75.5802L77.003 73.2292ZM79.4849 73.2402L81.9668 73.2512L81.9612 75.6023L79.4792 75.5912L79.4849 73.2402ZM54.6976 59.0227L57.1801 59.0338L57.1744 61.3848L54.6919 61.3738L54.6976 59.0227ZM57.1801 59.0338L59.662 59.0448L59.6563 61.3958L57.1744 61.3848L57.1801 59.0338ZM57.1914 54.3312L59.6734 54.3422L59.6677 56.6938L57.1858 56.6828L57.1914 54.3312ZM57.1858 56.6828L59.6677 56.6938L59.662 59.0448L57.1801 59.0338L57.1858 56.6828ZM59.6677 56.6938L62.1496 56.7048L62.1439 59.0558L59.662 59.0448L59.6677 56.6938ZM62.1496 56.7048L64.6321 56.7158L64.6264 59.0668L62.1439 59.0558L62.1496 56.7048ZM64.6321 56.7158L67.114 56.7268L67.1083 59.0779L64.6264 59.0668L64.6321 56.7158ZM67.114 56.7268L69.5959 56.7379L69.5902 59.0889L67.1083 59.0779L67.114 56.7268ZM64.6548 47.3106L67.1367 47.3216L67.1311 49.6727L64.6491 49.6617L64.6548 47.3106ZM64.6491 49.6617L67.1311 49.6727L67.1254 52.0242L64.6434 52.0132L64.6491 49.6617ZM67.1311 49.6727L69.6129 49.6837L69.6073 52.0352L67.1254 52.0242L67.1311 49.6727ZM67.1254 52.0242L69.6073 52.0352L69.6015 54.3863L67.1197 54.3752L67.1254 52.0242ZM67.1197 54.3752L69.6015 54.3863L69.5959 56.7379L67.114 56.7268L67.1197 54.3752ZM69.5959 56.7379L72.0784 56.7489L72.0727 59.0999L69.5902 59.0889L69.5959 56.7379ZM64.6264 59.0668L67.1083 59.0779L67.1027 61.4289L64.6207 61.4178L64.6264 59.0668ZM67.1083 59.0779L69.5902 59.0889L69.5845 61.4399L67.1027 61.4289L67.1083 59.0779ZM69.5902 59.0889L72.0727 59.0999L72.067 61.4509L69.5845 61.4399L69.5902 59.0889ZM72.0727 59.0999L74.5547 59.1109L74.549 61.4619L72.067 61.4509L72.0727 59.0999ZM74.5547 59.1109L77.0371 59.1219L77.0314 61.4729L74.549 61.4619L74.5547 59.1109ZM77.0371 59.1219L79.519 59.133L79.5133 61.484L77.0314 61.4729L77.0371 59.1219ZM79.519 59.133L82.0009 59.144L81.9953 61.495L79.5133 61.484L79.519 59.133ZM79.5247 56.782L82.0066 56.793L82.0009 59.144L79.519 59.133L79.5247 56.782ZM82.0009 59.144L84.4834 59.155L84.4777 61.506L81.9953 61.495L82.0009 59.144ZM84.4834 59.155L86.9653 59.166L86.9597 61.517L84.4777 61.506L84.4834 59.155ZM82.0123 54.4413L84.4948 54.4524L84.4891 56.804L82.0066 56.793L82.0123 54.4413ZM84.4948 54.4524L86.9767 54.4634L86.971 56.815L84.4891 56.804L84.4948 54.4524ZM86.9767 54.4634L89.4586 54.4744L89.4529 56.826L86.971 56.815L86.9767 54.4634ZM89.4586 54.4744L91.9411 54.4854L91.9354 56.8371L89.4529 56.826L89.4586 54.4744ZM91.9411 54.4854L94.423 54.4964L94.4173 56.8481L91.9354 56.8371L91.9411 54.4854ZM49.7565 49.5955L52.2384 49.6066L52.2327 51.9581L49.7508 51.9471L49.7565 49.5955ZM52.2384 49.6066L54.7203 49.6176L54.7147 51.9691L52.2327 51.9581L52.2384 49.6066ZM52.2441 47.2555L54.726 47.2665L54.7203 49.6176L52.2384 49.6066L52.2441 47.2555ZM54.726 47.2665L57.2085 47.2776L57.2028 49.6286L54.7203 49.6176L54.726 47.2665ZM54.7317 44.9155L57.2142 44.9265L57.2085 47.2776L54.726 47.2665L54.7317 44.9155ZM57.2142 44.9265L59.6961 44.9375L59.6904 47.2886L57.2085 47.2776L57.2142 44.9265ZM59.6961 44.9375L62.178 44.9485L62.1723 47.2996L59.6904 47.2886L59.6961 44.9375ZM59.7018 42.586L62.1837 42.597L62.178 44.9485L59.6961 44.9375L59.7018 42.586ZM62.1837 42.597L64.6662 42.608L64.6605 44.9596L62.178 44.9485L62.1837 42.597ZM57.2312 37.8729L59.7132 37.8839L59.7075 40.235L57.2255 40.224L57.2312 37.8729ZM59.7132 37.8839L62.195 37.8949L62.1894 40.246L59.7075 40.235L59.7132 37.8839ZM62.195 37.8949L64.6775 37.906L64.6719 40.257L62.1894 40.246L62.195 37.8949ZM52.2725 35.4993L54.7544 35.5103L54.7488 37.8619L52.2668 37.8509L52.2725 35.4993ZM54.7544 35.5103L57.2369 35.5213L57.2312 37.8729L54.7488 37.8619L54.7544 35.5103ZM44.8262 35.4662L47.3082 35.4773L47.3025 37.8288L44.8205 37.8178L44.8262 35.4662ZM47.3082 35.4773L49.7906 35.4883L49.7849 37.8399L47.3025 37.8288L47.3082 35.4773ZM47.3138 33.1263L49.7963 33.1373L49.7906 35.4883L47.3082 35.4773L47.3138 33.1263ZM49.7963 33.1373L52.2782 33.1483L52.2725 35.4993L49.7906 35.4883L49.7963 33.1373ZM49.8019 30.7863L52.2839 30.7973L52.2782 33.1483L49.7963 33.1373L49.8019 30.7863ZM52.2839 30.7973L54.7658 30.8083L54.7601 33.1593L52.2782 33.1483L52.2839 30.7973ZM54.7658 30.8083L57.2483 30.8193L57.2426 33.1703L54.7601 33.1593L54.7658 30.8083ZM57.2483 30.8193L59.7302 30.8303L59.7245 33.1814L57.2426 33.1703L57.2483 30.8193ZM57.2653 23.7651L59.7473 23.7761L59.7416 26.1277L57.2596 26.1167L57.2653 23.7651ZM57.2596 26.1167L59.7416 26.1277L59.7359 28.4787L57.2539 28.4677L57.2596 26.1167ZM59.7416 26.1277L62.2235 26.1387L62.2178 28.4897L59.7359 28.4787L59.7416 26.1277ZM57.2539 28.4677L59.7359 28.4787L59.7302 30.8303L57.2483 30.8193L57.2539 28.4677ZM59.7359 28.4787L62.2178 28.4897L62.2121 30.8413L59.7302 30.8303L59.7359 28.4787ZM62.2178 28.4897L64.7003 28.5008L64.6946 30.8524L62.2121 30.8413L62.2178 28.4897ZM64.7003 28.5008L67.1822 28.5118L67.1765 30.8634L64.6946 30.8524L64.7003 28.5008ZM64.7059 26.1498L67.1879 26.1608L67.1822 28.5118L64.7003 28.5008L64.7059 26.1498ZM67.1822 28.5118L69.6641 28.5228L69.6584 30.8744L67.1765 30.8634L67.1822 28.5118ZM69.6641 28.5228L72.1466 28.5338L72.1409 30.8854L69.6584 30.8744L69.6641 28.5228ZM59.7302 30.8303L62.2121 30.8413L62.2064 33.1924L59.7245 33.1814L59.7302 30.8303ZM69.6584 30.8744L72.1409 30.8854L72.1352 33.2365L69.6527 33.2254L69.6584 30.8744ZM72.1409 30.8854L74.6228 30.8964L74.6172 33.2475L72.1352 33.2365L72.1409 30.8854ZM54.7601 33.1593L57.2426 33.1703L57.2369 35.5213L54.7544 35.5103L54.7601 33.1593ZM59.7245 33.1814L62.2064 33.1924L62.2008 35.5434L59.7188 35.5324L59.7245 33.1814ZM62.2064 33.1924L64.6889 33.2034L64.6832 35.5544L62.2008 35.5434L62.2064 33.1924ZM69.6527 33.2254L72.1352 33.2365L72.1295 35.5875L69.647 35.5764L69.6527 33.2254ZM72.1352 33.2365L74.6172 33.2475L74.6115 35.5985L72.1295 35.5875L72.1352 33.2365ZM74.6172 33.2475L77.0996 33.2585L77.0939 35.6095L74.6115 35.5985L74.6172 33.2475ZM77.0996 33.2585L79.5815 33.2695L79.5759 35.6205L77.0939 35.6095L77.0996 33.2585ZM62.2008 35.5434L64.6832 35.5544L64.6775 37.906L62.195 37.8949L62.2008 35.5434ZM64.6832 35.5544L67.1652 35.5654L67.1595 37.917L64.6775 37.906L64.6832 35.5544ZM67.1652 35.5654L69.647 35.5764L69.6414 37.928L67.1595 37.917L67.1652 35.5654ZM69.647 35.5764L72.1295 35.5875L72.1239 37.939L69.6414 37.928L69.647 35.5764ZM74.6115 35.5985L77.0939 35.6095L77.0882 37.9611L74.6058 37.95L74.6115 35.5985ZM44.8205 37.8178L47.3025 37.8288L47.2968 40.1799L44.8148 40.1689L44.8205 37.8178ZM47.3025 37.8288L49.7849 37.8399L49.7792 40.1909L47.2968 40.1799L47.3025 37.8288ZM49.7849 37.8399L52.2668 37.8509L52.2612 40.2019L49.7792 40.1909L49.7849 37.8399ZM52.2668 37.8509L54.7488 37.8619L54.7431 40.2129L52.2612 40.2019L52.2668 37.8509ZM64.6775 37.906L67.1595 37.917L67.1538 40.268L64.6719 40.257L64.6775 37.906ZM69.6414 37.928L72.1239 37.939L72.1182 40.2901L69.6357 40.2791L69.6414 37.928ZM47.2968 40.1799L49.7792 40.1909L49.7735 42.5419L47.2911 42.5309L47.2968 40.1799ZM49.7792 40.1909L52.2612 40.2019L52.2555 42.5529L49.7735 42.5419L49.7792 40.1909ZM52.2612 40.2019L54.7431 40.2129L54.7374 42.564L52.2555 42.5529L52.2612 40.2019ZM62.1894 40.246L64.6719 40.257L64.6662 42.608L62.1837 42.597L62.1894 40.246ZM64.6719 40.257L67.1538 40.268L67.1481 42.6191L64.6662 42.608L64.6719 40.257ZM67.1538 40.268L69.6357 40.2791L69.63 42.6301L67.1481 42.6191L67.1538 40.268ZM69.6357 40.2791L72.1182 40.2901L72.1125 42.6411L69.63 42.6301L69.6357 40.2791ZM52.2555 42.5529L54.7374 42.564L54.7317 44.9155L52.2498 44.9045L52.2555 42.5529ZM64.6662 42.608L67.1481 42.6191L67.1424 44.9706L64.6605 44.9596L64.6662 42.608ZM67.1481 42.6191L69.63 42.6301L69.6243 44.9816L67.1424 44.9706L67.1481 42.6191ZM67.1424 44.9706L69.6243 44.9816L69.6186 47.3327L67.1367 47.3216L67.1424 44.9706ZM69.6243 44.9816L72.1068 44.9926L72.1011 47.3437L69.6186 47.3327L69.6243 44.9816ZM57.2085 47.2776L59.6904 47.2886L59.6847 49.6396L57.2028 49.6286L57.2085 47.2776ZM69.6186 47.3327L72.1011 47.3437L72.0954 49.6947L69.6129 49.6837L69.6186 47.3327ZM72.1011 47.3437L74.5831 47.3547L74.5774 49.7057L72.0954 49.6947L72.1011 47.3437ZM74.5831 47.3547L77.0655 47.3657L77.0598 49.7168L74.5774 49.7057L74.5831 47.3547ZM72.1125 42.6411L74.5944 42.6521L74.5887 45.0036L72.1068 44.9926L72.1125 42.6411ZM74.5944 42.6521L77.0769 42.6631L77.0712 45.0147L74.5887 45.0036L74.5944 42.6521ZM77.0769 42.6631L79.5588 42.6742L79.5531 45.0257L77.0712 45.0147L77.0769 42.6631ZM77.0882 37.9611L79.5702 37.9721L79.5645 40.3231L77.0826 40.3121L77.0882 37.9611ZM79.5702 37.9721L82.0521 37.9831L82.0464 40.3342L79.5645 40.3231L79.5702 37.9721ZM82.0521 37.9831L84.5345 37.9941L84.5289 40.3452L82.0464 40.3342L82.0521 37.9831ZM84.5345 37.9941L87.0165 38.0051L87.0108 40.3562L84.5289 40.3452L84.5345 37.9941ZM84.5402 35.6426L87.0222 35.6536L87.0165 38.0051L84.5345 37.9941L84.5402 35.6426ZM77.0826 40.3121L79.5645 40.3231L79.5588 42.6742L77.0769 42.6631L77.0826 40.3121ZM79.5645 40.3231L82.0464 40.3342L82.0407 42.6852L79.5588 42.6742L79.5645 40.3231ZM84.5289 40.3452L87.0108 40.3562L87.0051 42.7072L84.5232 42.6962L84.5289 40.3452ZM74.5887 45.0036L77.0712 45.0147L77.0655 47.3657L74.5831 47.3547L74.5887 45.0036ZM77.0712 45.0147L79.5531 45.0257L79.5474 47.3767L77.0655 47.3657L77.0712 45.0147ZM79.5531 45.0257L82.0351 45.0367L82.0294 47.3877L79.5474 47.3767L79.5531 45.0257ZM82.0351 45.0367L84.5175 45.0477L84.5118 47.3988L82.0294 47.3877L82.0351 45.0367ZM84.5175 45.0477L86.9994 45.0587L86.9938 47.4098L84.5118 47.3988L84.5175 45.0477ZM79.5474 47.3767L82.0294 47.3877L82.0237 49.7388L79.5418 49.7278L79.5474 47.3767ZM84.5118 47.3988L86.9938 47.4098L86.9881 49.7608L84.5061 49.7498L84.5118 47.3988ZM86.9938 47.4098L89.4757 47.4208L89.47 49.7719L86.9881 49.7608L86.9938 47.4098ZM89.4757 47.4208L91.9581 47.4318L91.9524 49.7829L89.47 49.7719L89.4757 47.4208ZM91.9581 47.4318L94.4401 47.4428L94.4344 49.7939L91.9524 49.7829L91.9581 47.4318ZM54.7203 49.6176L57.2028 49.6286L57.1971 51.9801L54.7147 51.9691L54.7203 49.6176ZM57.2028 49.6286L59.6847 49.6396L59.6791 51.9912L57.1971 51.9801L57.2028 49.6286ZM74.5774 49.7057L77.0598 49.7168L77.0541 52.0683L74.5717 52.0573L74.5774 49.7057ZM77.0598 49.7168L79.5418 49.7278L79.5361 52.0793L77.0541 52.0683L77.0598 49.7168ZM79.5418 49.7278L82.0237 49.7388L82.018 52.0903L79.5361 52.0793L79.5418 49.7278ZM84.5061 49.7498L86.9881 49.7608L86.9824 52.1124L84.5004 52.1014L84.5061 49.7498ZM91.9524 49.7829L94.4344 49.7939L94.4287 52.1454L91.9468 52.1344L91.9524 49.7829ZM49.7508 51.9471L52.2327 51.9581L52.2271 54.3091L49.7451 54.2981L49.7508 51.9471ZM52.2327 51.9581L54.7147 51.9691L54.709 54.3201L52.2271 54.3091L52.2327 51.9581ZM54.7147 51.9691L57.1971 51.9801L57.1914 54.3312L54.709 54.3201L54.7147 51.9691ZM77.0541 52.0683L79.5361 52.0793L79.5304 54.4303L77.0485 54.4193L77.0541 52.0683ZM91.9468 52.1344L94.4287 52.1454L94.423 54.4964L91.9411 54.4854L91.9468 52.1344ZM94.4287 52.1454L96.9106 52.1565L96.9049 54.5075L94.423 54.4964L94.4287 52.1454ZM52.2271 54.3091L54.709 54.3201L54.7033 56.6717L52.2214 56.6607L52.2271 54.3091ZM84.4891 56.804L86.971 56.815L86.9653 59.166L84.4834 59.155L84.4891 56.804ZM86.971 56.815L89.4529 56.826L89.4472 59.177L86.9653 59.166L86.971 56.815ZM91.9354 56.8371L94.4173 56.8481L94.4117 59.1991L91.9297 59.1881L91.9354 56.8371ZM86.9653 59.166L89.4472 59.177L89.4416 61.528L86.9597 61.517L86.9653 59.166ZM91.9297 59.1881L94.4117 59.1991L94.406 61.5501L91.924 61.5391L91.9297 59.1881ZM57.1744 61.3848L59.6563 61.3958L59.6507 63.7474L57.1687 63.7364L57.1744 61.3848ZM59.6563 61.3958L62.1382 61.4068L62.1325 63.7584L59.6507 63.7474L59.6563 61.3958ZM62.1382 61.4068L64.6207 61.4178L64.615 63.7695L62.1325 63.7584L62.1382 61.4068ZM67.1027 61.4289L69.5845 61.4399L69.5788 63.7915L67.097 63.7805L67.1027 61.4289ZM69.5845 61.4399L72.067 61.4509L72.0613 63.8025L69.5788 63.7915L69.5845 61.4399ZM72.067 61.4509L74.549 61.4619L74.5433 63.8135L72.0613 63.8025L72.067 61.4509ZM77.0314 61.4729L79.5133 61.484L79.5077 63.8356L77.0257 63.8246L77.0314 61.4729ZM81.9953 61.495L84.4777 61.506L84.472 63.8576L81.9896 63.8466L81.9953 61.495ZM84.4777 61.506L86.9597 61.517L86.954 63.8686L84.472 63.8576L84.4777 61.506ZM91.924 61.5391L94.406 61.5501L94.4003 63.9017L91.9183 63.8907L91.924 61.5391ZM94.406 61.5501L96.8878 61.5611L96.8822 63.9127L94.4003 63.9017L94.406 61.5501ZM59.6507 63.7474L62.1325 63.7584L62.1269 66.1094L59.645 66.0984L59.6507 63.7474ZM69.5788 63.7915L72.0613 63.8025L72.0557 66.1535L69.5731 66.1425L69.5788 63.7915ZM77.0257 63.8246L79.5077 63.8356L79.502 66.1866L77.02 66.1756L77.0257 63.8246ZM79.5077 63.8356L81.9896 63.8466L81.9839 66.1976L79.502 66.1866L79.5077 63.8356ZM81.9896 63.8466L84.472 63.8576L84.4663 66.2086L81.9839 66.1976L81.9896 63.8466ZM91.9183 63.8907L94.4003 63.9017L94.3946 66.2527L91.9127 66.2417L91.9183 63.8907ZM59.645 66.0984L62.1269 66.1094L62.1212 68.4605L59.6393 68.4494L59.645 66.0984ZM62.1269 66.1094L64.6093 66.1205L64.6037 68.4715L62.1212 68.4605L62.1269 66.1094ZM79.502 66.1866L81.9839 66.1976L81.9782 68.5486L79.4963 68.5376L79.502 66.1866ZM81.9839 66.1976L84.4663 66.2086L84.4607 68.5596L81.9782 68.5486L81.9839 66.1976ZM84.4663 66.2086L86.9483 66.2197L86.9426 68.5707L84.4607 68.5596L84.4663 66.2086ZM79.4963 68.5376L81.9782 68.5486L81.9725 70.9002L79.4906 70.8892L79.4963 68.5376ZM81.9782 68.5486L84.4607 68.5596L84.455 70.9112L81.9725 70.9002L81.9782 68.5486ZM79.4906 70.8892L81.9725 70.9002L81.9668 73.2512L79.4849 73.2402L79.4906 70.8892ZM81.9668 73.2512L84.4493 73.2622L84.4436 75.6133L81.9612 75.6023L81.9668 73.2512ZM84.4493 73.2622L86.9312 73.2733L86.9256 75.6243L84.4436 75.6133L84.4493 73.2622ZM74.5148 75.5692L76.9973 75.5802L76.9916 77.9318L74.5092 77.9207L74.5148 75.5692Z" fill="white"/>
<path fill-rule="evenodd" clip-rule="evenodd" d="M89.4188 70.9333L91.9013 70.9443L91.8955 73.2953L89.4131 73.2843L89.4188 70.9333ZM91.9013 70.9443L94.3831 70.9553L94.3775 73.3064L91.8955 73.2953L91.9013 70.9443ZM91.9069 68.5928L94.3888 68.6038L94.3831 70.9553L91.9013 70.9443L91.9069 68.5928ZM94.3888 68.6038L96.8708 68.6148L96.8651 70.9664L94.3831 70.9553L94.3888 68.6038ZM91.8955 73.2953L94.3775 73.3064L94.3718 75.6574L91.8899 75.6463L91.8955 73.2953ZM91.8899 75.6463L94.3718 75.6574L94.3661 78.0089L91.8842 77.9979L91.8899 75.6463ZM91.8842 77.9979L94.3661 78.0089L94.3604 80.3599L91.8785 80.3489L91.8842 77.9979ZM94.3661 78.0089L96.848 78.0199L96.8424 80.371L94.3604 80.3599L94.3661 78.0089ZM96.848 78.0199L99.3305 78.031L99.3248 80.382L96.8424 80.371L96.848 78.0199ZM99.3305 78.031L101.812 78.042L101.807 80.393L99.3248 80.382L99.3305 78.031ZM99.3362 75.6794L101.818 75.6904L101.812 78.042L99.3305 78.031L99.3362 75.6794ZM91.8785 80.3489L94.3604 80.3599L94.3547 82.711L91.8728 82.6999L91.8785 80.3489ZM99.3248 80.382L101.807 80.393L101.801 82.744L99.3191 82.733L99.3248 80.382ZM91.8728 82.6999L94.3547 82.711L94.349 85.0625L91.8671 85.0515L91.8728 82.6999ZM99.3191 82.733L101.801 82.744L101.795 85.0956L99.3134 85.0846L99.3191 82.733ZM91.8671 85.0515L94.349 85.0625L94.3434 87.4135L91.8615 87.4025L91.8671 85.0515Z" fill="white"/>
<path fill-rule="evenodd" clip-rule="evenodd" d="M96.8596 73.3179L99.342 73.3289L99.3363 75.6801L96.8539 75.669L96.8596 73.3179Z" fill="white"/>
<path fill-rule="evenodd" clip-rule="evenodd" d="M0.0502494 75.2388L2.53273 75.2498L2.5271 77.6013L0.0445557 77.5903L0.0502494 75.2388ZM2.53273 75.2498L5.01468 75.2608L5.00899 77.6123L2.5271 77.6013L2.53273 75.2498Z" fill="white"/>
<path fill-rule="evenodd" clip-rule="evenodd" d="M7.49758 75.2717L9.98012 75.2828L9.97442 77.6343L7.49194 77.6233L7.49758 75.2717ZM9.98012 75.2828L12.462 75.2938L12.4563 77.6453L9.97442 77.6343L9.98012 75.2828ZM12.462 75.2938L14.9445 75.3048L14.9388 77.6564L12.4563 77.6453L12.462 75.2938ZM14.9445 75.3048L17.4264 75.3158L17.4207 77.6674L14.9388 77.6564L14.9445 75.3048ZM17.4264 75.3158L19.9083 75.3268L19.9026 77.6784L17.4207 77.6674L17.4264 75.3158ZM19.9083 75.3268L22.3908 75.3379L22.3851 77.6894L19.9026 77.6784L19.9083 75.3268ZM22.3908 75.3379L24.8727 75.3489L24.867 77.7005L22.3851 77.6894L22.3908 75.3379ZM22.3965 72.9868L24.8784 72.9978L24.8727 75.3489L22.3908 75.3379L22.3965 72.9868ZM24.8784 72.9978L27.3603 73.0088L27.3546 75.3599L24.8727 75.3489L24.8784 72.9978ZM19.9026 77.6784L22.3851 77.6894L22.3794 80.0405L19.897 80.0295L19.9026 77.6784ZM22.3851 77.6894L24.867 77.7005L24.8613 80.0515L22.3794 80.0405L22.3851 77.6894ZM19.897 80.0295L22.3794 80.0405L22.3738 82.3915L19.8913 82.3805L19.897 80.0295ZM19.8913 82.3805L22.3738 82.3915L22.3681 84.7431L19.8856 84.7321L19.8913 82.3805ZM22.3738 82.3915L24.8556 82.4025L24.85 84.7541L22.3681 84.7431L22.3738 82.3915ZM24.8556 82.4025L27.3376 82.4135L27.3319 84.7652L24.85 84.7541L24.8556 82.4025ZM24.8613 80.0515L27.3433 80.0625L27.3376 82.4135L24.8556 82.4025L24.8613 80.0515Z" fill="white"/>
<path fill-rule="evenodd" clip-rule="evenodd" d="M44.7238 77.7888L47.2058 77.7998L47.2001 80.1508L44.7181 80.1398L44.7238 77.7888Z" fill="white"/>
<path fill-rule="evenodd" clip-rule="evenodd" d="M47.2003 80.1509L49.6827 80.1619L49.677 82.5128L47.1946 82.5018L47.2003 80.1509Z" fill="white"/>
<path fill-rule="evenodd" clip-rule="evenodd" d="M34.7836 82.4464L37.2661 82.4574L37.2605 84.8089L34.7779 84.7979L34.7836 82.4464ZM37.2661 82.4574L39.748 82.4684L39.7423 84.82L37.2605 84.8089L37.2661 82.4574ZM27.3543 75.3598L29.8369 75.3708L29.8312 77.7224L27.3487 77.7113L27.3543 75.3598ZM27.3487 77.7113L29.8312 77.7224L29.8255 80.0734L27.343 80.0623L27.3487 77.7113ZM29.8312 77.7224L32.3131 77.7334L32.3074 80.0844L29.8255 80.0734L29.8312 77.7224ZM32.3131 77.7334L34.795 77.7444L34.7893 80.0954L32.3074 80.0844L32.3131 77.7334ZM32.3188 75.3818L34.8007 75.3929L34.795 77.7444L32.3131 77.7334L32.3188 75.3818ZM34.8007 75.3929L37.2832 75.4039L37.2775 77.7554L34.795 77.7444L34.8007 75.3929ZM34.8063 73.0419L37.2889 73.0529L37.2832 75.4039L34.8007 75.3929L34.8063 73.0419ZM37.2832 75.4039L39.7651 75.4149L39.7594 77.7664L37.2775 77.7554L37.2832 75.4039ZM39.7651 75.4149L42.247 75.4259L42.2413 77.7775L39.7594 77.7664L39.7651 75.4149ZM42.247 75.4259L44.7295 75.4369L44.7238 77.7885L42.2413 77.7775L42.247 75.4259ZM39.7935 63.6594L42.2754 63.6704L42.2697 66.0214L39.7878 66.0104L39.7935 63.6594ZM42.2754 63.6704L44.7579 63.6814L44.7522 66.0324L42.2697 66.0214L42.2754 63.6704ZM39.7878 66.0104L42.2697 66.0214L42.264 68.3724L39.7821 68.3614L39.7878 66.0104ZM39.7821 68.3614L42.264 68.3724L42.2583 70.7239L39.7765 70.7129L39.7821 68.3614ZM42.264 68.3724L44.7466 68.3834L44.7409 70.735L42.2583 70.7239L42.264 68.3724ZM44.7466 68.3834L47.2284 68.3944L47.2228 70.746L44.7409 70.735L44.7466 68.3834ZM42.2583 70.7239L44.7409 70.735L44.7352 73.0859L42.2527 73.0749L42.2583 70.7239ZM42.2527 73.0749L44.7352 73.0859L44.7295 75.4369L42.247 75.4259L42.2527 73.0749ZM44.7352 73.0859L47.2171 73.097L47.2114 75.448L44.7295 75.4369L44.7352 73.0859ZM34.795 77.7444L37.2775 77.7554L37.2718 80.1064L34.7893 80.0954L34.795 77.7444ZM37.2775 77.7554L39.7594 77.7664L39.7537 80.1174L37.2718 80.1064L37.2775 77.7554ZM39.7594 77.7664L42.2413 77.7775L42.2356 80.1285L39.7537 80.1174L39.7594 77.7664ZM29.8255 80.0734L32.3074 80.0844L32.3017 82.4354L29.8198 82.4244L29.8255 80.0734ZM32.3074 80.0844L34.7893 80.0954L34.7836 82.4464L32.3017 82.4354L32.3074 80.0844ZM37.2718 80.1064L39.7537 80.1174L39.748 82.4684L37.2661 82.4574L37.2718 80.1064ZM37.2605 84.8089L39.7423 84.82L39.7367 87.171L37.2548 87.1599L37.2605 84.8089ZM39.7423 84.82L42.2242 84.831L42.2186 87.182L39.7367 87.171L39.7423 84.82ZM42.2242 84.831L44.7068 84.842L44.7011 87.193L42.2186 87.182L42.2242 84.831ZM37.2548 87.1599L39.7367 87.171L39.731 89.5225L37.2491 89.5115L37.2548 87.1599Z" fill="white"/>
<path fill-rule="evenodd" clip-rule="evenodd" d="M44.7126 82.491L47.1945 82.502L47.1888 84.8535L44.7069 84.8425L44.7126 82.491Z" fill="white"/>
<path fill-rule="evenodd" clip-rule="evenodd" d="M49.6769 82.5124L52.1588 82.5234L52.1531 84.875L49.6712 84.8639L49.6769 82.5124ZM52.1588 82.5234L54.6407 82.5345L54.635 84.886L52.1531 84.875L52.1588 82.5234ZM47.2114 75.448L49.694 75.459L49.6883 77.8105L47.2058 77.7995L47.2114 75.448ZM49.694 75.459L52.1759 75.4701L52.1702 77.8215L49.6883 77.8105L49.694 75.459ZM52.1759 75.4701L54.6578 75.4811L54.6521 77.8326L52.1702 77.8215L52.1759 75.4701ZM52.1816 73.1191L54.6634 73.1301L54.6578 75.4811L52.1759 75.4701L52.1816 73.1191ZM54.6634 73.1301L57.146 73.1411L57.1403 75.4921L54.6578 75.4811L54.6634 73.1301ZM57.146 73.1411L59.6279 73.1522L59.6222 75.5031L57.1403 75.4921L57.146 73.1411ZM59.6279 73.1522L62.1098 73.1632L62.1041 75.5141L59.6222 75.5031L59.6279 73.1522ZM62.1098 73.1632L64.5923 73.1742L64.5866 75.5252L62.1041 75.5141L62.1098 73.1632ZM62.1154 70.8123L64.598 70.8233L64.5923 73.1742L62.1098 73.1632L62.1154 70.8123ZM57.1403 75.4921L59.6222 75.5031L59.6165 77.8546L57.1346 77.8436L57.1403 75.4921ZM59.6222 75.5031L62.1041 75.5141L62.0984 77.8656L59.6165 77.8546L59.6222 75.5031ZM62.1041 75.5141L64.5866 75.5252L64.5809 77.8766L62.0984 77.8656L62.1041 75.5141ZM64.5866 75.5252L67.0685 75.5362L67.0628 77.8877L64.5809 77.8766L64.5866 75.5252ZM67.0685 75.5362L69.5504 75.5472L69.5447 77.8987L67.0628 77.8877L67.0685 75.5362ZM69.5504 75.5472L72.0329 75.5582L72.0272 77.9097L69.5447 77.8987L69.5504 75.5472ZM49.6883 77.8105L52.1702 77.8215L52.1645 80.1725L49.6826 80.1615L49.6883 77.8105ZM52.1702 77.8215L54.6521 77.8326L54.6464 80.1835L52.1645 80.1725L52.1702 77.8215ZM54.6521 77.8326L57.1346 77.8436L57.1289 80.1946L54.6464 80.1835L54.6521 77.8326ZM62.0984 77.8656L64.5809 77.8766L64.5752 80.2276L62.0927 80.2166L62.0984 77.8656ZM67.0628 77.8877L69.5447 77.8987L69.539 80.2496L67.0571 80.2386L67.0628 77.8877ZM69.5447 77.8987L72.0272 77.9097L72.0216 80.2607L69.539 80.2496L69.5447 77.8987ZM72.0272 77.9097L74.5091 77.9207L74.5034 80.2717L72.0216 80.2607L72.0272 77.9097ZM52.1645 80.1725L54.6464 80.1835L54.6407 82.5345L52.1588 82.5234L52.1645 80.1725ZM62.0927 80.2166L64.5752 80.2276L64.5696 82.5785L62.087 82.5675L62.0927 80.2166ZM67.0571 80.2386L69.539 80.2496L69.5334 82.6006L67.0514 82.5896L67.0571 80.2386Z" fill="white"/>
<path fill-rule="evenodd" clip-rule="evenodd" d="M64.5695 82.5789L67.0514 82.5899L67.0457 84.9416L64.5638 84.9306L64.5695 82.5789Z" fill="white"/>
<path fill-rule="evenodd" clip-rule="evenodd" d="M69.5334 82.6013L72.0159 82.6123L72.0102 84.9639L69.5277 84.9529L69.5334 82.6013ZM72.0159 82.6123L74.4978 82.6233L74.4921 84.9749L72.0102 84.9639L72.0159 82.6123ZM72.0102 84.9639L74.4921 84.9749L74.4864 87.326L72.0045 87.3149L72.0102 84.9639Z" fill="white"/>
<path fill-rule="evenodd" clip-rule="evenodd" d="M27.3316 84.7651L29.8141 84.7761L29.8085 87.1269L27.3259 87.1159L27.3316 84.7651ZM29.8141 84.7761L32.296 84.7872L32.2903 87.1379L29.8085 87.1269L29.8141 84.7761ZM32.296 84.7872L34.7779 84.7982L34.7722 87.1489L32.2903 87.1379L32.296 84.7872Z" fill="white"/>
<path fill-rule="evenodd" clip-rule="evenodd" d="M47.1888 84.8533L49.6713 84.8643L49.6656 87.2155L47.1831 87.2044L47.1888 84.8533Z" fill="white"/>
<path fill-rule="evenodd" clip-rule="evenodd" d="M52.1475 87.2264L54.6295 87.2374L54.6238 89.589L52.1418 89.578L52.1475 87.2264ZM54.6295 87.2374L57.112 87.2485L57.1063 89.6L54.6238 89.589L54.6295 87.2374ZM57.112 87.2485L59.5938 87.2595L59.5881 89.6111L57.1063 89.6L57.112 87.2485ZM59.5938 87.2595L62.0758 87.2705L62.0701 89.6221L59.5881 89.6111L59.5938 87.2595ZM57.1233 82.5459L59.6052 82.5569L59.5995 84.9085L57.1177 84.8974L57.1233 82.5459ZM59.6052 82.5569L62.0871 82.5679L62.0815 84.9195L59.5995 84.9085L59.6052 82.5569ZM59.5995 84.9085L62.0815 84.9195L62.0758 87.2705L59.5938 87.2595L59.5995 84.9085ZM62.0815 84.9195L64.5639 84.9305L64.5583 87.2815L62.0758 87.2705L62.0815 84.9195ZM62.0758 87.2705L64.5583 87.2815L64.5526 89.6331L62.0701 89.6221L62.0758 87.2705ZM64.5583 87.2815L67.0401 87.2925L67.0345 89.6441L64.5526 89.6331L64.5583 87.2815ZM67.0401 87.2925L69.5221 87.3036L69.5164 89.6551L67.0345 89.6441L67.0401 87.2925ZM69.5221 87.3036L72.0046 87.3146L71.9989 89.6662L69.5164 89.6551L69.5221 87.3036ZM62.0701 89.6221L64.5526 89.6331L64.5469 91.9841L62.0644 91.9731L62.0701 89.6221ZM64.5526 89.6331L67.0345 89.6441L67.0288 91.9951L64.5469 91.9841L64.5526 89.6331ZM67.0345 89.6441L69.5164 89.6551L69.5107 92.0061L67.0288 91.9951L67.0345 89.6441ZM64.5469 91.9841L67.0288 91.9951L67.0231 94.3461L64.5412 94.3351L64.5469 91.9841Z" fill="white"/>
<path fill-rule="evenodd" clip-rule="evenodd" d="M86.8971 87.3806L89.3791 87.3916L89.3734 89.7432L86.8915 89.7322L86.8971 87.3806ZM89.3791 87.3916L91.8615 87.4026L91.8558 89.7542L89.3734 89.7432L89.3791 87.3916ZM89.3734 89.7432L91.8558 89.7542L91.8502 92.1053L89.3677 92.0943L89.3734 89.7432Z" fill="white"/>
<path fill-rule="evenodd" clip-rule="evenodd" d="M19.8741 89.4346L22.3566 89.4457L22.3509 91.7968L19.8684 91.7857L19.8741 89.4346ZM22.3566 89.4457L24.8385 89.4567L24.8328 91.8078L22.3509 91.7968L22.3566 89.4457ZM22.3623 87.094L24.8442 87.105L24.8385 89.4567L22.3566 89.4457L22.3623 87.094ZM24.8442 87.105L27.3261 87.1161L27.3204 89.4677L24.8385 89.4567L24.8442 87.105ZM24.8385 89.4567L27.3204 89.4677L27.3148 91.8188L24.8328 91.8078L24.8385 89.4567ZM22.3509 91.7968L24.8328 91.8078L24.8271 94.1589L22.3453 94.1479L22.3509 91.7968ZM22.3453 94.1479L24.8271 94.1589L24.8214 96.5106L22.3396 96.4996L22.3453 94.1479ZM24.8271 94.1589L27.3091 94.17L27.3034 96.5216L24.8214 96.5106L24.8271 94.1589ZM27.3091 94.17L29.7916 94.181L29.7859 96.5326L27.3034 96.5216L27.3091 94.17ZM29.7916 94.181L32.2735 94.192L32.2678 96.5437L29.7859 96.5326L29.7916 94.181ZM32.2735 94.192L34.7554 94.203L34.7497 96.5547L32.2678 96.5437L32.2735 94.192ZM34.7554 94.203L37.2379 94.214L37.2322 96.5657L34.7497 96.5547L34.7554 94.203ZM34.7611 91.8519L37.2436 91.8629L37.2379 94.214L34.7554 94.203L34.7611 91.8519Z" fill="white"/>
<path fill-rule="evenodd" clip-rule="evenodd" d="M29.8031 89.479L32.2849 89.49L32.2792 91.8407L29.7974 91.8296L29.8031 89.479ZM32.2849 89.49L34.7669 89.5011L34.7612 91.8517L32.2792 91.8407L32.2849 89.49Z" fill="white"/>
<path fill-rule="evenodd" clip-rule="evenodd" d="M42.2129 89.5334L44.6953 89.5445L44.6896 91.8956L42.2072 91.8846L42.2129 89.5334Z" fill="white"/>
<path fill-rule="evenodd" clip-rule="evenodd" d="M74.4808 89.6772L76.9633 89.6882L76.9576 92.0392L74.4751 92.0282L74.4808 89.6772ZM76.9633 89.6882L79.4451 89.6992L79.4395 92.0502L76.9576 92.0392L76.9633 89.6882ZM76.9803 82.634L79.4622 82.6451L79.4565 84.9966L76.9747 84.9856L76.9803 82.634ZM76.9747 84.9856L79.4565 84.9966L79.4509 87.3477L76.969 87.3366L76.9747 84.9856ZM76.969 87.3366L79.4509 87.3477L79.4451 89.6992L76.9633 89.6882L76.969 87.3366ZM79.4509 87.3477L81.9328 87.3587L81.9271 89.7102L79.4451 89.6992L79.4509 87.3477ZM79.4451 89.6992L81.9271 89.7102L81.9214 92.0612L79.4395 92.0502L79.4451 89.6992ZM81.9271 89.7102L84.4096 89.7213L84.4039 92.0723L81.9214 92.0612L81.9271 89.7102ZM79.4395 92.0502L81.9214 92.0612L81.9157 94.4123L79.4338 94.4012L79.4395 92.0502ZM81.9214 92.0612L84.4039 92.0723L84.3982 94.4233L81.9157 94.4123L81.9214 92.0612ZM79.4338 94.4012L81.9157 94.4123L81.91 96.7638L79.4281 96.7528L79.4338 94.4012ZM81.9157 94.4123L84.3982 94.4233L84.3926 96.7749L81.91 96.7638L81.9157 94.4123Z" fill="white"/>
<path fill-rule="evenodd" clip-rule="evenodd" d="M94.3377 89.7654L96.8196 89.7764L96.8139 92.1275L94.332 92.1164L94.3377 89.7654ZM96.8196 89.7764L99.3021 89.7874L99.2964 92.1385L96.8139 92.1275L96.8196 89.7764ZM96.8253 87.4248L99.3078 87.4359L99.3021 89.7874L96.8196 89.7764L96.8253 87.4248ZM99.3078 87.4359L101.79 87.4469L101.784 89.7984L99.3021 89.7874L99.3078 87.4359ZM99.3021 89.7874L101.784 89.7984L101.778 92.1495L99.2964 92.1385L99.3021 89.7874Z" fill="white"/>
<path fill-rule="evenodd" clip-rule="evenodd" d="M44.6898 91.8956L47.1717 91.9067L47.166 94.2578L44.6841 94.2467L44.6898 91.8956ZM47.1717 91.9067L49.6542 91.9177L49.6485 94.2688L47.166 94.2578L47.1717 91.9067ZM49.6542 91.9177L52.1361 91.9287L52.1305 94.2798L49.6485 94.2688L49.6542 91.9177ZM49.6599 89.5667L52.1418 89.5777L52.1361 91.9287L49.6542 91.9177L49.6599 89.5667ZM44.6841 94.2467L47.166 94.2578L47.1603 96.6094L44.6785 96.5984L44.6841 94.2467ZM49.6485 94.2688L52.1305 94.2798L52.1248 96.6314L49.6428 96.6204L49.6485 94.2688ZM52.1305 94.2798L54.6123 94.2908L54.6066 96.6425L52.1248 96.6314L52.1305 94.2798Z" fill="white"/>
<path fill-rule="evenodd" clip-rule="evenodd" d="M57.1004 91.9507L59.5824 91.9617L59.5767 94.3128L57.0947 94.3017L57.1004 91.9507ZM59.5824 91.9617L62.0642 91.9728L62.0585 94.3238L59.5767 94.3128L59.5824 91.9617ZM59.5767 94.3128L62.0585 94.3238L62.0529 96.6754L59.571 96.6644L59.5767 94.3128ZM62.0585 94.3238L64.541 94.3348L64.5354 96.6864L62.0529 96.6754L62.0585 94.3238Z" fill="white"/>
<path fill-rule="evenodd" clip-rule="evenodd" d="M69.5106 92.0059L71.9931 92.0169L71.9874 94.3681L69.5049 94.357L69.5106 92.0059Z" fill="white"/>
<path fill-rule="evenodd" clip-rule="evenodd" d="M39.7197 94.2249L42.2016 94.2359L42.1959 96.5873L39.714 96.5763L39.7197 94.2249Z" fill="white"/>
<path fill-rule="evenodd" clip-rule="evenodd" d="M67.0232 94.3459L69.505 94.357L69.4994 96.7087L67.0175 96.6977L67.0232 94.3459Z" fill="white"/>
<path fill-rule="evenodd" clip-rule="evenodd" d="M89.3619 94.4456L91.8445 94.4566L91.8388 96.8083L89.3563 96.7973L89.3619 94.4456ZM91.8445 94.4566L94.3264 94.4676L94.3207 96.8193L91.8388 96.8083L91.8445 94.4566Z" fill="white"/>
<path fill-rule="evenodd" clip-rule="evenodd" d="M99.2906 94.489L101.772 94.5L101.767 96.8515L99.2849 96.8405L99.2906 94.489Z" fill="white"/>
<path fill-rule="evenodd" clip-rule="evenodd" d="M0.233017 0L17.6081 0.0771124L17.5684 16.5354L0.193219 16.4583L0.233017 0ZM5.19174 2.37303L2.7098 2.36203L2.68139 14.1183L15.0921 14.1734L15.1205 2.41712L5.19174 2.37303ZM84.6255 0.374671L102 0.451783L101.96 16.91L84.5857 16.8329L84.6255 0.374671ZM89.5836 2.7477L87.1017 2.7367L87.0733 14.4929L99.484 14.548L99.5124 2.7918L89.5836 2.7477ZM79.4792 75.5913L91.8899 75.6464L91.8615 87.4027L79.4508 87.3476L79.4792 75.5913ZM84.4379 77.965L81.9555 77.954L81.9384 85.0076L89.3847 85.0406L89.4017 77.987L84.4379 77.965ZM0.0397949 79.9413L17.4149 80.0184L17.3751 96.4772L0 96.4001L0.0397949 79.9413ZM4.99846 82.3144L2.51658 82.3034L2.48817 94.0596L14.8989 94.1147L14.9273 82.3584L4.99846 82.3144Z" fill="white"/>
<path fill-rule="evenodd" clip-rule="evenodd" d="M5.18614 4.72461L12.6324 4.75763L12.6153 11.8113L5.16905 11.7782L5.18614 4.72461ZM89.578 5.09928L97.0243 5.1323L97.0073 12.186L89.5609 12.1529L89.578 5.09928ZM84.4323 80.3161L86.9142 80.3271L86.9086 82.6781L84.4267 82.6671L84.4323 80.3161ZM4.99291 84.6661L12.4392 84.6991L12.4221 91.7528L4.97583 91.7197L4.99291 84.6661Z" fill="white"/>
</svg>
