<svg width="605" height="1176" viewBox="0 0 605 1176" fill="none" xmlns="http://www.w3.org/2000/svg">
<path d="M337.688 129.619C357.588 -5.9004 533.787 -47.57 612.282 64.6794C656.984 128.604 743.552 147.797 810.823 108.311L838.567 92.0262C950.122 26.5477 1082.24 137.096 1037.96 258.635C1011.21 332.061 1050.91 413.124 1125.37 436.844C1250.29 476.639 1253.94 652.07 1130.78 697.021L1117.39 701.908C1044.19 728.624 1006.21 809.619 1031.99 883.152C1075.59 1007.49 943.423 1121.25 827.708 1058.23L804.918 1045.82C735.955 1008.26 649.778 1028.64 604.943 1093.11L590.126 1114.42C514.896 1222.59 345.774 1180.09 329.059 1049.39C319.173 972.098 248.934 916.696 171.522 925.598L157.362 927.227C27.1138 942.205 -48.2081 783.724 45.6549 692.188C101.602 637.628 100.784 547.371 43.9804 493.704C-50.0445 404.871 18.5556 246.856 147.623 255.429L179.723 257.561C257.555 262.731 326.355 206.795 337.688 129.619Z" fill="#0A2A55"/>
</svg>
